<svg width="342" height="384" viewBox="0 0 342 384" fill="none" xmlns="http://www.w3.org/2000/svg">
<path d="M16.8305 22V20.1641L21.8305 15.3398C23.2562 13.9141 23.9984 13.0742 23.9984 11.8828C23.9984 10.5742 22.9633 9.73438 21.5766 9.73438C20.1117 9.73438 19.1742 10.6523 19.1937 12.0781H16.7719C16.7523 9.40234 18.7641 7.66406 21.5961 7.66406C24.4867 7.66406 26.4398 9.38281 26.4398 11.7656C26.4398 13.3672 25.6586 14.6562 22.8852 17.2734L20.3656 19.7734V19.8711H26.6547V22H16.8305ZM33.4961 22.1953C30.0977 22.1953 28.0664 19.5586 28.0664 14.9297C28.0664 10.3203 30.0977 7.66406 33.4961 7.66406C36.875 7.66406 38.9258 10.3203 38.9258 14.9297C38.9258 19.5586 36.8945 22.1953 33.4961 22.1953ZM33.4961 20.0664C35.2734 20.0664 36.3672 18.3281 36.3672 14.9297C36.3672 11.5508 35.2539 9.77344 33.4961 9.77344C31.7383 9.77344 30.625 11.5508 30.625 14.9297C30.625 18.3281 31.7187 20.0664 33.4961 20.0664ZM40.4547 22V20.1641L45.4547 15.3398C46.8805 13.9141 47.6227 13.0742 47.6227 11.8828C47.6227 10.5742 46.5875 9.73438 45.2008 9.73438C43.7359 9.73438 42.7984 10.6523 42.818 12.0781H40.3961C40.3766 9.40234 42.3883 7.66406 45.2203 7.66406C48.1109 7.66406 50.0641 9.38281 50.0641 11.7656C50.0641 13.3672 49.2828 14.6562 46.5094 17.2734L43.9898 19.7734V19.8711H50.2789V22H40.4547ZM56.925 22.1953C54.093 22.1953 52.0227 20.5156 51.9445 18.1719H54.425C54.5031 19.3242 55.5773 20.1445 56.925 20.1445C58.507 20.1445 59.6398 18.9922 59.6398 17.4297C59.6398 15.8086 58.468 14.6562 56.8469 14.6562C55.7531 14.6367 54.9523 15.0273 54.5031 15.8672H52.1398L52.9992 7.85938H61.3586V9.98828H55.0891L54.6594 13.7383H54.7961C55.343 13.1133 56.3781 12.6641 57.5305 12.6641C60.1672 12.6641 62.1008 14.6367 62.1008 17.3516C62.1008 20.1836 59.9719 22.1953 56.925 22.1953ZM77.8484 6.10156V19.1094H75.6805V13.2305H71.0711V11.5117H75.6805V9.91016H71.0711V8.19141H75.6805V6.10156H77.8484ZM78.2977 21.6289V23.3867H66.2469V17.957H68.4344V21.6289H78.2977ZM66.2273 7.27344V14.9102C68.4734 14.8809 70.5926 14.7441 72.9656 14.3242L73.1805 16.082C70.4656 16.5898 68.0828 16.6875 65.4656 16.707H64.0789V7.27344H66.2273ZM85.0078 22L91.1406 10.0859V9.98828H84.0312V7.85938H93.7773V10.0273L87.6445 22H85.0078ZM109.447 6.10156V16.3945H107.259V15.6719H103.959V14.3438H107.259V6.10156H109.447ZM94.6227 12.4688C98.0406 12.4688 102.298 12.4297 106.088 12.0586L106.205 13.4258C104.593 13.6504 102.933 13.7871 101.302 13.8555V16.4141H99.1539V13.9531C97.6402 13.9922 96.1852 14.002 94.857 13.9922L94.6227 12.4688ZM109.447 16.9414V20.9062H99.4078V22.0391H109.916V23.582H97.2789V19.4805H107.298V18.4258H97.2008V16.9414H109.447ZM100.326 6.375C102.943 6.375 104.74 7.42969 104.74 9.03125C104.74 10.6719 102.943 11.668 100.326 11.668C97.65 11.668 95.8727 10.6719 95.8727 9.03125C95.8727 7.42969 97.65 6.375 100.326 6.375ZM100.326 7.82031C98.8414 7.82031 97.9234 8.28906 97.943 9.03125C97.9234 9.77344 98.8414 10.2227 100.326 10.2227C101.771 10.2227 102.709 9.77344 102.709 9.03125C102.709 8.28906 101.771 7.82031 100.326 7.82031Z" fill="black"/>
<path d="M285.913 23.7117C286 23.7988 286.069 23.9022 286.117 24.016C286.164 24.1298 286.188 24.2518 286.188 24.375C286.188 24.4982 286.164 24.6201 286.117 24.7339C286.069 24.8477 286 24.9512 285.913 25.0383C285.826 25.1254 285.723 25.1945 285.609 25.2416C285.495 25.2887 285.373 25.313 285.25 25.313C285.127 25.313 285.005 25.2887 284.891 25.2416C284.777 25.1945 284.674 25.1254 284.587 25.0383L275.212 15.6633C275.125 15.5762 275.055 15.4728 275.008 15.359C274.961 15.2452 274.937 15.1232 274.937 15C274.937 14.8768 274.961 14.7548 275.008 14.641C275.055 14.5272 275.125 14.4238 275.212 14.3367L284.587 4.96169C284.763 4.78578 285.001 4.68695 285.25 4.68695C285.499 4.68695 285.737 4.78578 285.913 4.96169C286.089 5.1376 286.188 5.37619 286.188 5.62497C286.188 5.87375 286.089 6.11234 285.913 6.28825L277.2 15L285.913 23.7117Z" fill="black"/>
<path d="M317.788 15.6633L308.413 25.0383C308.326 25.1254 308.223 25.1945 308.109 25.2416C307.995 25.2887 307.873 25.313 307.75 25.313C307.627 25.313 307.505 25.2887 307.391 25.2416C307.277 25.1945 307.174 25.1254 307.087 25.0383C307 24.9512 306.931 24.8477 306.883 24.7339C306.836 24.6201 306.812 24.4982 306.812 24.375C306.812 24.2518 306.836 24.1298 306.883 24.016C306.931 23.9022 307 23.7988 307.087 23.7117L315.8 15L307.087 6.28825C306.911 6.11234 306.812 5.87375 306.812 5.62497C306.812 5.37619 306.911 5.1376 307.087 4.96169C307.263 4.78578 307.501 4.68695 307.75 4.68695C307.999 4.68695 308.237 4.78578 308.413 4.96169L317.788 14.3367C317.875 14.4238 317.945 14.5272 317.992 14.641C318.039 14.7548 318.063 14.8768 318.063 15C318.063 15.1232 318.039 15.2452 317.992 15.359C317.945 15.4728 317.875 15.5762 317.788 15.6633Z" fill="black"/>
<path d="M34.166 71.7891C35.7715 71.7891 36.9668 72.7852 36.9785 74.1797C36.9668 75.5859 35.7715 76.5703 34.166 76.5703C32.5488 76.5703 31.3535 75.5859 31.3535 74.1797C31.3535 72.7852 32.5488 71.7891 34.166 71.7891ZM34.166 72.8672C33.2754 72.8672 32.6191 73.3711 32.6191 74.1797C32.6191 75 33.2754 75.5156 34.166 75.5156C35.0566 75.5156 35.7129 75 35.7129 74.1797C35.7129 73.3711 35.0566 72.8672 34.166 72.8672ZM39.9902 71.4492V76.8047H38.6777V71.4492H39.9902ZM39.9902 77.2617V80.0273H34.2598V80.8828H40.3066V81.9141H32.9824V79.0664H38.6895V78.2812H32.959V77.2617H39.9902Z" fill="#3C3C3C"/>
<path d="M85.0488 71.4609V77.6367H83.7363V77.2031H81.7559V76.4062H83.7363V71.4609H85.0488ZM76.1543 75.2812C78.2051 75.2812 80.7598 75.2578 83.0332 75.0352L83.1035 75.8555C82.1367 75.9902 81.1406 76.0723 80.1621 76.1133V77.6484H78.873V76.1719C77.9648 76.1953 77.0918 76.2012 76.2949 76.1953L76.1543 75.2812ZM85.0488 77.9648V80.3438H79.0254V81.0234H85.3301V81.9492H77.748V79.4883H83.7598V78.8555H77.7012V77.9648H85.0488ZM79.5762 71.625C81.1465 71.625 82.2246 72.2578 82.2246 73.2188C82.2246 74.2031 81.1465 74.8008 79.5762 74.8008C77.9707 74.8008 76.9043 74.2031 76.9043 73.2188C76.9043 72.2578 77.9707 71.625 79.5762 71.625ZM79.5762 72.4922C78.6855 72.4922 78.1348 72.7734 78.1465 73.2188C78.1348 73.6641 78.6855 73.9336 79.5762 73.9336C80.4434 73.9336 81.0059 73.6641 81.0059 73.2188C81.0059 72.7734 80.4434 72.4922 79.5762 72.4922Z" fill="#3C3C3C"/>
<path d="M129.545 71.4492V75.8203H131.033V76.9102H129.545V82.043H128.232V71.4492H129.545ZM121.037 79.1016C121.84 79.1016 122.771 79.1016 123.744 79.0781V78.082C122.59 77.8887 121.834 77.1621 121.846 76.1719C121.834 74.9766 122.889 74.1797 124.412 74.1797C125.912 74.1797 126.979 74.9766 126.99 76.1719C126.979 77.168 126.211 77.8945 125.057 78.082V79.0312C125.947 78.9844 126.838 78.9141 127.67 78.7969L127.752 79.7461C125.479 80.1562 123.029 80.1797 121.225 80.1797L121.037 79.1016ZM127.553 72.668V73.6992H121.236V72.668H123.744V71.4961H125.057V72.668H127.553ZM124.412 75.1758C123.604 75.1875 123.076 75.5508 123.076 76.1719C123.076 76.7812 123.604 77.1445 124.412 77.1328C125.209 77.1445 125.736 76.7812 125.736 76.1719C125.736 75.5508 125.209 75.1875 124.412 75.1758Z" fill="#3C3C3C"/>
<path d="M171.686 72.3281C171.686 73.6641 173.174 75.0117 175.436 75.3047L174.92 76.3594C173.121 76.0898 171.691 75.2051 171.006 74.0039C170.309 75.2051 168.885 76.0898 167.104 76.3594L166.588 75.3047C168.826 75.0117 170.314 73.6641 170.314 72.3281V71.7891H171.686V72.3281ZM175.822 77.2734V78.3516H171.615V82.043H170.326V78.3516H166.166V77.2734H175.822Z" fill="#3C3C3C"/>
<path d="M219.592 71.8828V75.5625H216.639V76.6758H220.822V77.7305H211.166V76.6758H215.326V75.5625H212.385V71.8828H219.592ZM213.65 72.9023V74.5312H218.303V72.9023H213.65ZM219.639 78.6211V82.043H218.338V79.6523H212.232V78.6211H219.639Z" fill="#3C3C3C"/>
<path d="M264.662 71.9648V72.7852C264.662 73.6055 264.662 74.543 264.404 75.7969H265.846V76.8516H256.166V75.7969H263.092C263.338 74.6543 263.361 73.7812 263.361 73.0078H257.361V71.9648H264.662ZM264.65 78.082V81.9141H257.326V78.082H264.65ZM258.604 79.1016V80.8594H263.361V79.1016H258.604Z" fill="#3C3C3C"/>
<path d="M309.779 76.7812V77.8242H306.65V79.7578H310.846V80.8008H301.166V79.7578H305.338V77.8242H302.35V72.2344H309.686V73.2891H303.674V74.4844H309.439V75.5156H303.674V76.7812H309.779Z" fill="#3C3C3C"/>
<rect y="94" width="342" height="290" rx="10" fill="white"/>
<rect width="46" height="54" transform="translate(10 104)" fill="white"/>
<rect width="46" height="54" transform="translate(56 104)" fill="white"/>
<rect width="46" height="54" transform="translate(102 104)" fill="white"/>
<path d="M138 124.5C138 131.68 132.18 137.5 125 137.5C117.82 137.5 112 131.68 112 124.5C112 117.32 117.82 111.5 125 111.5C132.18 111.5 138 117.32 138 124.5ZM116.651 124.5C116.651 129.111 120.389 132.849 125 132.849C129.611 132.849 133.349 129.111 133.349 124.5C133.349 119.889 129.611 116.151 125 116.151C120.389 116.151 116.651 119.889 116.651 124.5Z" fill="#E2E2E2"/>
<path d="M125 111.5C127.052 111.5 129.074 111.986 130.902 112.917C132.73 113.848 134.311 115.199 135.517 116.859C136.723 118.519 137.519 120.44 137.84 122.466C138.161 124.493 137.998 126.566 137.364 128.517C136.73 130.468 135.643 132.242 134.192 133.692C132.742 135.143 130.968 136.23 129.017 136.864C127.066 137.498 124.993 137.661 122.966 137.34C120.94 137.019 119.019 136.223 117.359 135.017L120.093 131.254C121.159 132.029 122.393 132.54 123.694 132.746C124.995 132.952 126.327 132.847 127.58 132.44C128.833 132.033 129.972 131.335 130.904 130.404C131.835 129.472 132.533 128.333 132.94 127.08C133.347 125.827 133.452 124.495 133.246 123.194C133.04 121.893 132.529 120.659 131.754 119.593C130.98 118.527 129.964 117.659 128.79 117.061C127.616 116.463 126.318 116.151 125 116.151L125 111.5Z" fill="#35E3E0"/>
<path d="M126.395 141.016V149.5H124.859V142.504H124.812L122.832 143.77V142.375L124.93 141.016H126.395Z" fill="#3C3C3C"/>
<rect width="46" height="54" transform="translate(148 104)" fill="white"/>
<path d="M184 124.5C184 131.68 178.18 137.5 171 137.5C163.82 137.5 158 131.68 158 124.5C158 117.32 163.82 111.5 171 111.5C178.18 111.5 184 117.32 184 124.5ZM162.651 124.5C162.651 129.111 166.389 132.849 171 132.849C175.611 132.849 179.349 129.111 179.349 124.5C179.349 119.889 175.611 116.151 171 116.151C166.389 116.151 162.651 119.889 162.651 124.5Z" fill="#E2E2E2"/>
<path d="M171 111.5C173.052 111.5 175.074 111.986 176.902 112.917C178.73 113.848 180.311 115.199 181.517 116.859C182.723 118.519 183.519 120.44 183.84 122.466C184.161 124.493 183.998 126.566 183.364 128.517C182.73 130.468 181.643 132.242 180.192 133.692C178.742 135.143 176.968 136.23 175.017 136.864C173.066 137.498 170.993 137.661 168.966 137.34C166.94 137.019 165.019 136.223 163.359 135.017L166.093 131.254C167.159 132.029 168.393 132.54 169.694 132.746C170.995 132.952 172.327 132.847 173.58 132.44C174.833 132.033 175.972 131.335 176.904 130.404C177.835 129.472 178.533 128.333 178.94 127.08C179.347 125.827 179.452 124.495 179.246 123.194C179.04 121.893 178.529 120.659 177.754 119.593C176.98 118.527 175.964 117.659 174.79 117.061C173.616 116.463 172.318 116.151 171 116.151L171 111.5Z" fill="#35E3E0"/>
<path d="M168.088 149.5V148.398L171.088 145.504C171.943 144.648 172.389 144.145 172.389 143.43C172.389 142.645 171.768 142.141 170.936 142.141C170.057 142.141 169.494 142.691 169.506 143.547H168.053C168.041 141.941 169.248 140.898 170.947 140.898C172.682 140.898 173.854 141.93 173.854 143.359C173.854 144.32 173.385 145.094 171.721 146.664L170.209 148.164V148.223H173.982V149.5H168.088Z" fill="#3C3C3C"/>
<rect width="46" height="54" transform="translate(194 104)" fill="white"/>
<path d="M230 124.5C230 131.68 224.18 137.5 217 137.5C209.82 137.5 204 131.68 204 124.5C204 117.32 209.82 111.5 217 111.5C224.18 111.5 230 117.32 230 124.5ZM208.651 124.5C208.651 129.111 212.389 132.849 217 132.849C221.611 132.849 225.349 129.111 225.349 124.5C225.349 119.889 221.611 116.151 217 116.151C212.389 116.151 208.651 119.889 208.651 124.5Z" fill="#E2E2E2"/>
<path d="M217 111.5C219.052 111.5 221.074 111.986 222.902 112.917C224.73 113.848 226.311 115.199 227.517 116.859C228.723 118.519 229.519 120.44 229.84 122.466C230.161 124.493 229.998 126.566 229.364 128.517L224.94 127.08C225.347 125.827 225.452 124.495 225.246 123.194C225.04 121.893 224.529 120.659 223.754 119.593C222.98 118.527 221.964 117.659 220.79 117.061C219.616 116.463 218.318 116.151 217 116.151L217 111.5Z" fill="#BCFFFE"/>
<path d="M216.994 149.617C215.178 149.617 213.889 148.633 213.854 147.203H215.389C215.436 147.883 216.115 148.328 216.994 148.328C217.932 148.328 218.6 147.812 218.6 147.062C218.6 146.301 217.943 145.75 216.842 145.75H216.08V144.578H216.842C217.744 144.578 218.377 144.074 218.365 143.336C218.377 142.621 217.838 142.141 217.006 142.141C216.209 142.141 215.518 142.586 215.494 143.301H214.029C214.064 141.871 215.354 140.898 217.018 140.898C218.74 140.898 219.854 141.953 219.842 143.254C219.854 144.203 219.221 144.895 218.295 145.082V145.152C219.49 145.316 220.17 146.078 220.158 147.145C220.17 148.574 218.834 149.617 216.994 149.617Z" fill="#3C3C3C"/>
<rect width="46" height="54" transform="translate(240 104)" fill="white"/>
<path d="M276 124.5C276 131.68 270.18 137.5 263 137.5C255.82 137.5 250 131.68 250 124.5C250 117.32 255.82 111.5 263 111.5C270.18 111.5 276 117.32 276 124.5ZM254.651 124.5C254.651 129.111 258.389 132.849 263 132.849C267.611 132.849 271.349 129.111 271.349 124.5C271.349 119.889 267.611 116.151 263 116.151C258.389 116.151 254.651 119.889 254.651 124.5Z" fill="#E2E2E2"/>
<path d="M259.678 147.918V146.699L263.346 141.016H265.244V146.664H266.357V147.918H265.244V149.5H263.791V147.918H259.678ZM261.236 146.664H263.814V142.75H263.721L261.236 146.605V146.664Z" fill="#3C3C3C"/>
<rect width="46" height="54" transform="translate(286 104)" fill="white"/>
<path d="M322 124.5C322 131.68 316.18 137.5 309 137.5C301.82 137.5 296 131.68 296 124.5C296 117.32 301.82 111.5 309 111.5C316.18 111.5 322 117.32 322 124.5ZM300.651 124.5C300.651 129.111 304.389 132.849 309 132.849C313.611 132.849 317.349 129.111 317.349 124.5C317.349 119.889 313.611 116.151 309 116.151C304.389 116.151 300.651 119.889 300.651 124.5Z" fill="#E2E2E2"/>
<path d="M309 111.5C311.052 111.5 313.074 111.986 314.902 112.917C316.73 113.848 318.311 115.199 319.517 116.859C320.723 118.519 321.519 120.44 321.84 122.466C322.161 124.493 321.998 126.566 321.364 128.517C320.73 130.468 319.643 132.242 318.192 133.692C316.742 135.143 314.968 136.23 313.017 136.864C311.066 137.498 308.993 137.661 306.966 137.34C304.94 137.019 303.019 136.223 301.359 135.017L304.093 131.254C305.159 132.029 306.393 132.54 307.694 132.746C308.995 132.952 310.327 132.847 311.58 132.44C312.833 132.033 313.972 131.335 314.904 130.404C315.835 129.472 316.533 128.333 316.94 127.08C317.347 125.827 317.452 124.495 317.246 123.194C317.04 121.893 316.529 120.659 315.754 119.593C314.98 118.527 313.964 117.659 312.79 117.061C311.616 116.463 310.318 116.151 309 116.151L309 111.5Z" fill="#35E3E0"/>
<path d="M309.012 149.617C307.312 149.617 306.07 148.609 306.023 147.203H307.512C307.559 147.895 308.203 148.387 309.012 148.387C309.961 148.387 310.641 147.695 310.641 146.758C310.641 145.785 309.938 145.094 308.965 145.094C308.309 145.082 307.828 145.316 307.559 145.82H306.141L306.656 141.016H311.672V142.293H307.91L307.652 144.543H307.734C308.062 144.168 308.684 143.898 309.375 143.898C310.957 143.898 312.117 145.082 312.117 146.711C312.117 148.41 310.84 149.617 309.012 149.617Z" fill="#3C3C3C"/>
<rect width="46" height="54" transform="translate(10 158)" fill="white"/>
<path d="M46 178.5C46 185.68 40.1797 191.5 33 191.5C25.8203 191.5 20 185.68 20 178.5C20 171.32 25.8203 165.5 33 165.5C40.1797 165.5 46 171.32 46 178.5ZM24.6511 178.5C24.6511 183.111 28.389 186.849 33 186.849C37.611 186.849 41.3489 183.111 41.3489 178.5C41.3489 173.889 37.611 170.151 33 170.151C28.389 170.151 24.6511 173.889 24.6511 178.5Z" fill="#E2E2E2"/>
<path d="M33 165.5C35.0515 165.5 37.0739 165.986 38.9019 166.917C40.7298 167.848 42.3114 169.199 43.5172 170.859C44.7231 172.519 45.519 174.44 45.8399 176.466C46.1609 178.493 45.9977 180.566 45.3637 182.517C44.7298 184.468 43.643 186.242 42.1924 187.692C40.7417 189.143 38.9683 190.23 37.0172 190.864C35.0661 191.498 32.9926 191.661 30.9664 191.34C28.9401 191.019 27.0185 190.223 25.3588 189.017L28.0926 185.254C29.1585 186.029 30.3926 186.54 31.6939 186.746C32.9953 186.952 34.3269 186.847 35.58 186.44C36.833 186.033 37.9719 185.335 38.9036 184.404C39.8352 183.472 40.5332 182.333 40.9403 181.08C41.3474 179.827 41.4522 178.495 41.2461 177.194C41.04 175.893 40.5289 174.659 39.7544 173.593C38.98 172.527 37.9643 171.659 36.7903 171.061C35.6164 170.463 34.3175 170.151 33 170.151L33 165.5Z" fill="#35E3E0"/>
<path d="M33.082 203.617C31.4297 203.605 29.7656 202.621 29.7773 199.492C29.7773 196.586 31.1016 194.898 33.1758 194.898C34.8164 194.898 35.9414 195.93 36.1289 197.301H34.6172C34.4648 196.656 33.9492 196.223 33.1758 196.223C31.9453 196.223 31.2539 197.312 31.2539 199.094H31.3359C31.7695 198.367 32.5898 197.934 33.5156 197.934C35.0391 197.934 36.2109 199.082 36.2109 200.688C36.2109 202.375 34.957 203.629 33.082 203.617ZM33.082 202.387C34.0312 202.387 34.7344 201.648 34.7344 200.723C34.7344 199.82 34.043 199.094 33.1055 199.094C32.1562 199.094 31.4297 199.844 31.418 200.734C31.4297 201.625 32.1211 202.387 33.082 202.387Z" fill="#3C3C3C"/>
<rect width="46" height="54" transform="translate(56 158)" fill="white"/>
<path d="M92 178.5C92 185.68 86.1797 191.5 79 191.5C71.8203 191.5 66 185.68 66 178.5C66 171.32 71.8203 165.5 79 165.5C86.1797 165.5 92 171.32 92 178.5ZM70.6511 178.5C70.6511 183.111 74.389 186.849 79 186.849C83.611 186.849 87.3489 183.111 87.3489 178.5C87.3489 173.889 83.611 170.151 79 170.151C74.389 170.151 70.6511 173.889 70.6511 178.5Z" fill="#E2E2E2"/>
<path d="M76.6152 203.5L80.2949 196.352V196.293H76.0293V195.016H81.877V196.316L78.1973 203.5H76.6152Z" fill="#3C3C3C"/>
<rect width="46" height="54" transform="translate(102 158)" fill="white"/>
<path d="M138 178.5C138 185.68 132.18 191.5 125 191.5C117.82 191.5 112 185.68 112 178.5C112 171.32 117.82 165.5 125 165.5C132.18 165.5 138 171.32 138 178.5ZM116.651 178.5C116.651 183.111 120.389 186.849 125 186.849C129.611 186.849 133.349 183.111 133.349 178.5C133.349 173.889 129.611 170.151 125 170.151C120.389 170.151 116.651 173.889 116.651 178.5Z" fill="#E2E2E2"/>
<path d="M125 203.617C123.113 203.617 121.777 202.609 121.777 201.227C121.777 200.148 122.574 199.27 123.594 199.105V199.059C122.703 198.871 122.094 198.098 122.094 197.172C122.094 195.859 123.324 194.898 125 194.898C126.664 194.898 127.895 195.859 127.895 197.172C127.895 198.098 127.273 198.871 126.395 199.059V199.105C127.414 199.27 128.223 200.148 128.223 201.227C128.223 202.609 126.875 203.617 125 203.617ZM125 202.41C125.996 202.41 126.652 201.871 126.652 201.086C126.652 200.289 125.949 199.703 125 199.703C124.039 199.703 123.336 200.289 123.348 201.086C123.336 201.871 123.992 202.41 125 202.41ZM125 198.566C125.82 198.566 126.406 198.051 126.406 197.312C126.406 196.598 125.832 196.094 125 196.094C124.156 196.094 123.582 196.586 123.582 197.312C123.582 198.051 124.168 198.566 125 198.566Z" fill="#3C3C3C"/>
<rect width="46" height="54" transform="translate(148 158)" fill="white"/>
<path d="M184 178.5C184 185.68 178.18 191.5 171 191.5C163.82 191.5 158 185.68 158 178.5C158 171.32 163.82 165.5 171 165.5C178.18 165.5 184 171.32 184 178.5ZM162.651 178.5C162.651 183.111 166.389 186.849 171 186.849C175.611 186.849 179.349 183.111 179.349 178.5C179.349 173.889 175.611 170.151 171 170.151C166.389 170.151 162.651 173.889 162.651 178.5Z" fill="#E2E2E2"/>
<path d="M171 165.5C173.052 165.5 175.074 165.986 176.902 166.917C178.73 167.848 180.311 169.199 181.517 170.859C182.723 172.519 183.519 174.44 183.84 176.466C184.161 178.493 183.998 180.566 183.364 182.517L178.94 181.08C179.347 179.827 179.452 178.495 179.246 177.194C179.04 175.893 178.529 174.659 177.754 173.593C176.98 172.527 175.964 171.659 174.79 171.061C173.616 170.463 172.318 170.151 171 170.151L171 165.5Z" fill="#BCFFFE"/>
<path d="M170.918 194.898C172.582 194.91 174.223 195.895 174.234 199C174.234 201.93 172.91 203.617 170.824 203.617C169.184 203.617 168.059 202.598 167.871 201.191H169.383C169.535 201.859 170.051 202.293 170.824 202.293C172.055 202.293 172.746 201.203 172.758 199.387H172.664C172.23 200.125 171.422 200.559 170.484 200.559C168.973 200.559 167.801 199.41 167.789 197.805C167.789 196.141 169.031 194.887 170.918 194.898ZM170.93 196.129C169.98 196.129 169.266 196.867 169.277 197.77C169.277 198.684 169.957 199.398 170.906 199.398C171.844 199.398 172.582 198.637 172.57 197.758C172.57 196.891 171.879 196.129 170.93 196.129Z" fill="#3C3C3C"/>
<rect width="46" height="54" transform="translate(194 158)" fill="white"/>
<path d="M230 178.5C230 185.68 224.18 191.5 217 191.5C209.82 191.5 204 185.68 204 178.5C204 171.32 209.82 165.5 217 165.5C224.18 165.5 230 171.32 230 178.5ZM208.651 178.5C208.651 183.111 212.389 186.849 217 186.849C221.611 186.849 225.349 183.111 225.349 178.5C225.349 173.889 221.611 170.151 217 170.151C212.389 170.151 208.651 173.889 208.651 178.5Z" fill="#E2E2E2"/>
<path d="M230 178.5C230 185.68 224.18 191.5 217 191.5C209.82 191.5 204 185.68 204 178.5C204 171.32 209.82 165.5 217 165.5C224.18 165.5 230 171.32 230 178.5ZM208.651 178.5C208.651 183.111 212.389 186.849 217 186.849C221.611 186.849 225.349 183.111 225.349 178.5C225.349 173.889 221.611 170.151 217 170.151C212.389 170.151 208.651 173.889 208.651 178.5Z" fill="#E2E2E2"/>
<path d="M214.742 195.016V203.5H213.207V196.504H213.16L211.18 197.77V196.375L213.278 195.016H214.742ZM219.574 203.617C217.535 203.617 216.316 202.035 216.316 199.258C216.316 196.492 217.535 194.898 219.574 194.898C221.601 194.898 222.832 196.492 222.832 199.258C222.832 202.035 221.613 203.617 219.574 203.617ZM219.574 202.34C220.64 202.34 221.297 201.297 221.297 199.258C221.297 197.23 220.629 196.164 219.574 196.164C218.519 196.164 217.851 197.23 217.851 199.258C217.851 201.297 218.507 202.34 219.574 202.34Z" fill="#3C3C3C"/>
<rect width="46" height="54" transform="translate(240 158)" fill="white"/>
<path d="M276 178.5C276 185.68 270.18 191.5 263 191.5C255.82 191.5 250 185.68 250 178.5C250 171.32 255.82 165.5 263 165.5C270.18 165.5 276 171.32 276 178.5ZM254.651 178.5C254.651 183.111 258.389 186.849 263 186.849C267.611 186.849 271.349 183.111 271.349 178.5C271.349 173.889 267.611 170.151 263 170.151C258.389 170.151 254.651 173.889 254.651 178.5Z" fill="#E2E2E2"/>
<path d="M263 165.5C265.052 165.5 267.074 165.986 268.902 166.917C270.73 167.848 272.311 169.199 273.517 170.859C274.723 172.519 275.519 174.44 275.84 176.466C276.161 178.493 275.998 180.566 275.364 182.517L270.94 181.08C271.347 179.827 271.452 178.495 271.246 177.194C271.04 175.893 270.529 174.659 269.754 173.593C268.98 172.527 267.964 171.659 266.79 171.061C265.616 170.463 264.318 170.151 263 170.151L263 165.5Z" fill="#BCFFFE"/>
<path d="M261.821 195.016V203.5H260.285V196.504H260.239L258.258 197.77V196.375L260.356 195.016H261.821ZM266.968 195.016V203.5H265.433V196.504H265.386L263.406 197.77V196.375L265.504 195.016H266.968Z" fill="#3C3C3C"/>
<rect width="46" height="54" transform="translate(286 158)" fill="white"/>
<path d="M322 178.5C322 185.68 316.18 191.5 309 191.5C301.82 191.5 296 185.68 296 178.5C296 171.32 301.82 165.5 309 165.5C316.18 165.5 322 171.32 322 178.5ZM300.651 178.5C300.651 183.111 304.389 186.849 309 186.849C313.611 186.849 317.349 183.111 317.349 178.5C317.349 173.889 313.611 170.151 309 170.151C304.389 170.151 300.651 173.889 300.651 178.5Z" fill="#E2E2E2"/>
<path d="M309 165.5C311.052 165.5 313.074 165.986 314.902 166.917C316.73 167.848 318.311 169.199 319.517 170.859C320.723 172.519 321.519 174.44 321.84 176.466C322.161 178.493 321.998 180.566 321.364 182.517L316.94 181.08C317.347 179.827 317.452 178.495 317.246 177.194C317.04 175.893 316.529 174.659 315.754 173.593C314.98 172.527 313.964 171.659 312.79 171.061C311.616 170.463 310.318 170.151 309 170.151L309 165.5Z" fill="#BCFFFE"/>
<path d="M306.959 195.016V203.5H305.424V196.504H305.377L303.397 197.77V196.375L305.494 195.016H306.959ZM308.662 203.5V202.398L311.662 199.504C312.517 198.648 312.963 198.145 312.963 197.43C312.963 196.645 312.341 196.141 311.509 196.141C310.631 196.141 310.068 196.691 310.08 197.547H308.627C308.615 195.941 309.822 194.898 311.521 194.898C313.256 194.898 314.427 195.93 314.427 197.359C314.427 198.32 313.959 199.094 312.295 200.664L310.783 202.164V202.223H314.556V203.5H308.662Z" fill="#3C3C3C"/>
<rect width="46" height="54" transform="translate(10 212)" fill="white"/>
<path d="M46 232.5C46 239.68 40.1797 245.5 33 245.5C25.8203 245.5 20 239.68 20 232.5C20 225.32 25.8203 219.5 33 219.5C40.1797 219.5 46 225.32 46 232.5ZM24.6511 232.5C24.6511 237.111 28.389 240.849 33 240.849C37.611 240.849 41.3489 237.111 41.3489 232.5C41.3489 227.889 37.611 224.151 33 224.151C28.389 224.151 24.6511 227.889 24.6511 232.5Z" fill="#E2E2E2"/>
<path d="M33 219.5C35.0515 219.5 37.0739 219.986 38.9019 220.917C40.7298 221.848 42.3114 223.199 43.5172 224.859C44.7231 226.519 45.519 228.44 45.8399 230.466C46.1609 232.493 45.9977 234.566 45.3637 236.517C44.7298 238.468 43.643 240.242 42.1924 241.692C40.7417 243.143 38.9683 244.23 37.0172 244.864C35.0661 245.498 32.9926 245.661 30.9664 245.34C28.9401 245.019 27.0185 244.223 25.3588 243.017L28.0926 239.254C29.1585 240.029 30.3926 240.54 31.6939 240.746C32.9953 240.952 34.3269 240.847 35.58 240.44C36.833 240.033 37.9719 239.335 38.9036 238.404C39.8352 237.472 40.5332 236.333 40.9403 235.08C41.3474 233.827 41.4522 232.495 41.2461 231.194C41.04 229.893 40.5289 228.659 39.7544 227.593C38.98 226.527 37.9643 225.659 36.7903 225.061C35.6164 224.463 34.3175 224.151 33 224.151L33 219.5Z" fill="#35E3E0"/>
<path d="M30.7835 249.016V257.5H29.2484V250.504H29.2015L27.221 251.77V250.375L29.3187 249.016H30.7835ZM35.568 257.617C33.7516 257.617 32.4626 256.633 32.4274 255.203H33.9626C34.0095 255.883 34.6891 256.328 35.568 256.328C36.5055 256.328 37.1735 255.812 37.1735 255.062C37.1735 254.301 36.5173 253.75 35.4157 253.75H34.654V252.578H35.4157C36.318 252.578 36.9509 252.074 36.9391 251.336C36.9509 250.621 36.4118 250.141 35.5798 250.141C34.7829 250.141 34.0915 250.586 34.068 251.301H32.6032C32.6384 249.871 33.9274 248.898 35.5915 248.898C37.3141 248.898 38.4274 249.953 38.4157 251.254C38.4274 252.203 37.7946 252.895 36.8688 253.082V253.152C38.0641 253.316 38.7438 254.078 38.7321 255.145C38.7438 256.574 37.4079 257.617 35.568 257.617Z" fill="#3C3C3C"/>
<rect width="46" height="54" transform="translate(56 212)" fill="white"/>
<path d="M92 232.5C92 239.68 86.1797 245.5 79 245.5C71.8203 245.5 66 239.68 66 232.5C66 225.32 71.8203 219.5 79 219.5C86.1797 219.5 92 225.32 92 232.5ZM70.6511 232.5C70.6511 237.111 74.389 240.849 79 240.849C83.611 240.849 87.3489 237.111 87.3489 232.5C87.3489 227.889 83.611 224.151 79 224.151C74.389 224.151 70.6511 227.889 70.6511 232.5Z" fill="#E2E2E2"/>
<path d="M79 219.5C81.0515 219.5 83.0739 219.986 84.9019 220.917C86.7298 221.848 88.3114 223.199 89.5172 224.859C90.7231 226.519 91.519 228.44 91.8399 230.466C92.1609 232.493 91.9977 234.566 91.3637 236.517C90.7298 238.468 89.643 240.242 88.1924 241.692C86.7417 243.143 84.9683 244.23 83.0172 244.864C81.0661 245.498 78.9926 245.661 76.9664 245.34C74.9401 245.019 73.0185 244.223 71.3588 243.017L74.0926 239.254C75.1585 240.029 76.3926 240.54 77.6939 240.746C78.9953 240.952 80.3269 240.847 81.58 240.44C82.833 240.033 83.9719 239.335 84.9036 238.404C85.8352 237.472 86.5332 236.333 86.9403 235.08C87.3474 233.827 87.4522 232.495 87.2461 231.194C87.04 229.893 86.5289 228.659 85.7544 227.593C84.98 226.527 83.9643 225.659 82.7903 225.061C81.6164 224.463 80.3175 224.151 79 224.151L79 219.5Z" fill="#35E3E0"/>
<path d="M76.7015 249.016V257.5H75.1663V250.504H75.1195L73.139 251.77V250.375L75.2366 249.016H76.7015ZM78.2516 255.918V254.699L81.9196 249.016H83.818V254.664H84.9313V255.918H83.818V257.5H82.3649V255.918H78.2516ZM79.8102 254.664H82.3884V250.75H82.2946L79.8102 254.605V254.664Z" fill="#3C3C3C"/>
<rect width="46" height="54" transform="translate(102 212)" fill="white"/>
<path d="M138 232.5C138 239.68 132.18 245.5 125 245.5C117.82 245.5 112 239.68 112 232.5C112 225.32 117.82 219.5 125 219.5C132.18 219.5 138 225.32 138 232.5ZM116.651 232.5C116.651 237.111 120.389 240.849 125 240.849C129.611 240.849 133.349 237.111 133.349 232.5C133.349 227.889 129.611 224.151 125 224.151C120.389 224.151 116.651 227.889 116.651 232.5Z" fill="#E2E2E2"/>
<path d="M125 219.5C127.052 219.5 129.074 219.986 130.902 220.917C132.73 221.848 134.311 223.199 135.517 224.859C136.723 226.519 137.519 228.44 137.84 230.466C138.161 232.493 137.998 234.566 137.364 236.517L132.94 235.08C133.347 233.827 133.452 232.495 133.246 231.194C133.04 229.893 132.529 228.659 131.754 227.593C130.98 226.527 129.964 225.659 128.79 225.061C127.616 224.463 126.318 224.151 125 224.151L125 219.5Z" fill="#BCFFFE"/>
<path d="M122.871 249.016V257.5H121.336V250.504H121.289L119.309 251.77V250.375L121.407 249.016H122.871ZM127.586 257.617C125.886 257.617 124.644 256.609 124.597 255.203H126.086C126.132 255.895 126.777 256.387 127.586 256.387C128.535 256.387 129.215 255.695 129.215 254.758C129.215 253.785 128.511 253.094 127.539 253.094C126.882 253.082 126.402 253.316 126.132 253.82H124.715L125.23 249.016H130.246V250.293H126.484L126.226 252.543H126.308C126.636 252.168 127.257 251.898 127.949 251.898C129.531 251.898 130.691 253.082 130.691 254.711C130.691 256.41 129.414 257.617 127.586 257.617Z" fill="#3C3C3C"/>
<rect width="46" height="54" transform="translate(148 212)" fill="white"/>
<path d="M184 232.5C184 239.68 178.18 245.5 171 245.5C163.82 245.5 158 239.68 158 232.5C158 225.32 163.82 219.5 171 219.5C178.18 219.5 184 225.32 184 232.5ZM162.651 232.5C162.651 237.111 166.389 240.849 171 240.849C175.611 240.849 179.349 237.111 179.349 232.5C179.349 227.889 175.611 224.151 171 224.151C166.389 224.151 162.651 227.889 162.651 232.5Z" fill="#E2E2E2"/>
<path d="M168.778 249.016V257.5H167.242V250.504H167.196L165.215 251.77V250.375L167.313 249.016H168.778ZM173.656 257.617C172.004 257.605 170.34 256.621 170.351 253.492C170.351 250.586 171.675 248.898 173.75 248.898C175.39 248.898 176.515 249.93 176.703 251.301H175.191C175.039 250.656 174.523 250.223 173.75 250.223C172.519 250.223 171.828 251.312 171.828 253.094H171.91C172.343 252.367 173.164 251.934 174.09 251.934C175.613 251.934 176.785 253.082 176.785 254.688C176.785 256.375 175.531 257.629 173.656 257.617ZM173.656 256.387C174.605 256.387 175.308 255.648 175.308 254.723C175.308 253.82 174.617 253.094 173.679 253.094C172.73 253.094 172.004 253.844 171.992 254.734C172.004 255.625 172.695 256.387 173.656 256.387Z" fill="#3C3C3C"/>
<rect width="46" height="54" transform="translate(194 212)" fill="white"/>
<path d="M230 232.5C230 239.68 224.18 245.5 217 245.5C209.82 245.5 204 239.68 204 232.5C204 225.32 209.82 219.5 217 219.5C224.18 219.5 230 225.32 230 232.5ZM208.651 232.5C208.651 237.111 212.389 240.849 217 240.849C221.611 240.849 225.349 237.111 225.349 232.5C225.349 227.889 221.611 224.151 217 224.151C212.389 224.151 208.651 227.889 208.651 232.5Z" fill="#E2E2E2"/>
<path d="M217 219.5C219.052 219.5 221.074 219.986 222.902 220.917C224.73 221.848 226.311 223.199 227.517 224.859C228.723 226.519 229.519 228.44 229.84 230.466C230.161 232.493 229.998 234.566 229.364 236.517C228.73 238.468 227.643 240.242 226.192 241.692C224.742 243.143 222.968 244.23 221.017 244.864C219.066 245.498 216.993 245.661 214.966 245.34C212.94 245.019 211.019 244.223 209.359 243.017L212.093 239.254C213.159 240.029 214.393 240.54 215.694 240.746C216.995 240.952 218.327 240.847 219.58 240.44C220.833 240.033 221.972 239.335 222.904 238.404C223.835 237.472 224.533 236.333 224.94 235.08C225.347 233.827 225.452 232.495 225.246 231.194C225.04 229.893 224.529 228.659 223.754 227.593C222.98 226.527 221.964 225.659 220.79 225.061C219.616 224.463 218.318 224.151 217 224.151L217 219.5Z" fill="#35E3E0"/>
<path d="M215.17 249.016V257.5H213.635V250.504H213.588L211.608 251.77V250.375L213.705 249.016H215.17ZM217.189 257.5L220.869 250.352V250.293H216.603V249.016H222.451V250.316L218.771 257.5H217.189Z" fill="#3C3C3C"/>
<rect width="46" height="54" transform="translate(240 212)" fill="white"/>
<path d="M276 232.5C276 239.68 270.18 245.5 263 245.5C255.82 245.5 250 239.68 250 232.5C250 225.32 255.82 219.5 263 219.5C270.18 219.5 276 225.32 276 232.5ZM254.651 232.5C254.651 237.111 258.389 240.849 263 240.849C267.611 240.849 271.349 237.111 271.349 232.5C271.349 227.889 267.611 224.151 263 224.151C258.389 224.151 254.651 227.889 254.651 232.5Z" fill="#E2E2E2"/>
<path d="M263 219.5C265.052 219.5 267.074 219.986 268.902 220.917C270.73 221.848 272.311 223.199 273.517 224.859C274.723 226.519 275.519 228.44 275.84 230.466C276.161 232.493 275.998 234.566 275.364 236.517C274.73 238.468 273.643 240.242 272.192 241.692C270.742 243.143 268.968 244.23 267.017 244.864C265.066 245.498 262.993 245.661 260.966 245.34C258.94 245.019 257.019 244.223 255.359 243.017L258.093 239.254C259.159 240.029 260.393 240.54 261.694 240.746C262.995 240.952 264.327 240.847 265.58 240.44C266.833 240.033 267.972 239.335 268.904 238.404C269.835 237.472 270.533 236.333 270.94 235.08C271.347 233.827 271.452 232.495 271.246 231.194C271.04 229.893 270.529 228.659 269.754 227.593C268.98 226.527 267.964 225.659 266.79 225.061C265.616 224.463 264.318 224.151 263 224.151L263 219.5Z" fill="#35E3E0"/>
<path d="M260.789 249.016V257.5H259.254V250.504H259.207L257.227 251.77V250.375L259.325 249.016H260.789ZM265.574 257.617C263.687 257.617 262.351 256.609 262.351 255.227C262.351 254.148 263.148 253.27 264.168 253.105V253.059C263.277 252.871 262.668 252.098 262.668 251.172C262.668 249.859 263.898 248.898 265.574 248.898C267.238 248.898 268.468 249.859 268.468 251.172C268.468 252.098 267.847 252.871 266.968 253.059V253.105C267.988 253.27 268.797 254.148 268.797 255.227C268.797 256.609 267.449 257.617 265.574 257.617ZM265.574 256.41C266.57 256.41 267.226 255.871 267.226 255.086C267.226 254.289 266.523 253.703 265.574 253.703C264.613 253.703 263.91 254.289 263.922 255.086C263.91 255.871 264.566 256.41 265.574 256.41ZM265.574 252.566C266.394 252.566 266.98 252.051 266.98 251.312C266.98 250.598 266.406 250.094 265.574 250.094C264.73 250.094 264.156 250.586 264.156 251.312C264.156 252.051 264.742 252.566 265.574 252.566Z" fill="#3C3C3C"/>
<rect x="286.5" y="212.5" width="45" height="53" rx="4.5" fill="white"/>
<rect x="286.5" y="212.5" width="45" height="53" rx="4.5" stroke="black"/>
<path d="M322 232.5C322 239.68 316.18 245.5 309 245.5C301.82 245.5 296 239.68 296 232.5C296 225.32 301.82 219.5 309 219.5C316.18 219.5 322 225.32 322 232.5ZM300.651 232.5C300.651 237.111 304.389 240.849 309 240.849C313.611 240.849 317.349 237.111 317.349 232.5C317.349 227.889 313.611 224.151 309 224.151C304.389 224.151 300.651 227.889 300.651 232.5Z" fill="#E2E2E2"/>
<path d="M309 219.5C311.052 219.5 313.074 219.986 314.902 220.917C316.73 221.848 318.311 223.199 319.517 224.859C320.723 226.519 321.519 228.44 321.84 230.466C322.161 232.493 321.998 234.566 321.364 236.517C320.73 238.468 319.643 240.242 318.192 241.692C316.742 243.143 314.968 244.23 313.017 244.864C311.066 245.498 308.993 245.661 306.966 245.34C304.94 245.019 303.019 244.223 301.359 243.017L304.093 239.254C305.159 240.029 306.393 240.54 307.694 240.746C308.995 240.952 310.327 240.847 311.58 240.44C312.833 240.033 313.972 239.335 314.904 238.404C315.835 237.472 316.533 236.333 316.94 235.08C317.347 233.827 317.452 232.495 317.246 231.194C317.04 229.893 316.529 228.659 315.754 227.593C314.98 226.527 313.964 225.659 312.79 225.061C311.616 224.463 310.318 224.151 309 224.151L309 219.5Z" fill="#35E3E0"/>
<path d="M306.778 249.016V257.5H305.242V250.504H305.196L303.215 251.77V250.375L305.313 249.016H306.778ZM311.492 248.898C313.156 248.91 314.797 249.895 314.808 253C314.808 255.93 313.484 257.617 311.398 257.617C309.757 257.617 308.632 256.598 308.445 255.191H309.957C310.109 255.859 310.625 256.293 311.398 256.293C312.629 256.293 313.32 255.203 313.332 253.387H313.238C312.804 254.125 311.996 254.559 311.058 254.559C309.547 254.559 308.375 253.41 308.363 251.805C308.363 250.141 309.605 248.887 311.492 248.898ZM311.504 250.129C310.554 250.129 309.84 250.867 309.851 251.77C309.851 252.684 310.531 253.398 311.48 253.398C312.418 253.398 313.156 252.637 313.144 251.758C313.144 250.891 312.453 250.129 311.504 250.129Z" fill="#3C3C3C"/>
<rect width="46" height="54" transform="translate(10 266)" fill="white"/>
<path d="M46 286.5C46 293.68 40.1797 299.5 33 299.5C25.8203 299.5 20 293.68 20 286.5C20 279.32 25.8203 273.5 33 273.5C40.1797 273.5 46 279.32 46 286.5ZM24.6511 286.5C24.6511 291.111 28.389 294.849 33 294.849C37.611 294.849 41.3489 291.111 41.3489 286.5C41.3489 281.889 37.611 278.151 33 278.151C28.389 278.151 24.6511 281.889 24.6511 286.5Z" fill="#E2E2E2"/>
<path d="M33 273.5C35.0515 273.5 37.0739 273.986 38.9019 274.917C40.7298 275.848 42.3114 277.199 43.5172 278.859C44.7231 280.519 45.519 282.44 45.8399 284.466C46.1609 286.493 45.9977 288.566 45.3637 290.517C44.7298 292.468 43.643 294.242 42.1924 295.692C40.7417 297.143 38.9683 298.23 37.0172 298.864C35.0661 299.498 32.9926 299.661 30.9664 299.34C28.9401 299.019 27.0185 298.223 25.3588 297.017L28.0926 293.254C29.1585 294.029 30.3926 294.54 31.6939 294.746C32.9953 294.952 34.3269 294.847 35.58 294.44C36.833 294.033 37.9719 293.335 38.9036 292.404C39.8352 291.472 40.5332 290.333 40.9403 289.08C41.3474 287.827 41.4522 286.495 41.2461 285.194C41.04 283.893 40.5289 282.659 39.7544 281.593C38.98 280.527 37.9643 279.659 36.7903 279.061C35.6164 278.463 34.3175 278.151 33 278.151L33 273.5Z" fill="#35E3E0"/>
<path d="M26.4359 311.5V310.398L29.4359 307.504C30.2913 306.648 30.7366 306.145 30.7366 305.43C30.7366 304.645 30.1155 304.141 29.2835 304.141C28.4046 304.141 27.8421 304.691 27.8538 305.547H26.4007C26.389 303.941 27.596 302.898 29.2952 302.898C31.0296 302.898 32.2015 303.93 32.2015 305.359C32.2015 306.32 31.7327 307.094 30.0687 308.664L28.557 310.164V310.223H32.3304V311.5H26.4359ZM36.4352 311.617C34.3962 311.617 33.1774 310.035 33.1774 307.258C33.1774 304.492 34.3962 302.898 36.4352 302.898C38.4626 302.898 39.693 304.492 39.693 307.258C39.693 310.035 38.4743 311.617 36.4352 311.617ZM36.4352 310.34C37.5016 310.34 38.1579 309.297 38.1579 307.258C38.1579 305.23 37.4899 304.164 36.4352 304.164C35.3805 304.164 34.7126 305.23 34.7126 307.258C34.7126 309.297 35.3688 310.34 36.4352 310.34Z" fill="#3C3C3C"/>
<rect width="46" height="54" transform="translate(56 266)" fill="white"/>
<path d="M92 286.5C92 293.68 86.1797 299.5 79 299.5C71.8203 299.5 66 293.68 66 286.5C66 279.32 71.8203 273.5 79 273.5C86.1797 273.5 92 279.32 92 286.5ZM70.6511 286.5C70.6511 291.111 74.389 294.849 79 294.849C83.611 294.849 87.3489 291.111 87.3489 286.5C87.3489 281.889 83.611 278.151 79 278.151C74.389 278.151 70.6511 281.889 70.6511 286.5Z" fill="#E2E2E2"/>
<path d="M79 273.5C81.0515 273.5 83.0739 273.986 84.9019 274.917C86.7298 275.848 88.3114 277.199 89.5172 278.859C90.7231 280.519 91.519 282.44 91.8399 284.466C92.1609 286.493 91.9977 288.566 91.3637 290.517C90.7298 292.468 89.643 294.242 88.1924 295.692C86.7417 297.143 84.9683 298.23 83.0172 298.864C81.0661 299.498 78.9926 299.661 76.9664 299.34C74.9401 299.019 73.0185 298.223 71.3588 297.017L74.0926 293.254C75.1585 294.029 76.3926 294.54 77.6939 294.746C78.9953 294.952 80.3269 294.847 81.58 294.44C82.833 294.033 83.9719 293.335 84.9036 292.404C85.8352 291.472 86.5332 290.333 86.9403 289.08C87.3474 287.827 87.4522 286.495 87.2461 285.194C87.04 283.893 86.5289 282.659 85.7544 281.593C84.98 280.527 83.9643 279.659 82.7903 279.061C81.6164 278.463 80.3175 278.151 79 278.151L79 273.5Z" fill="#35E3E0"/>
<path d="M73.514 311.5V310.398L76.514 307.504C77.3695 306.648 77.8148 306.145 77.8148 305.43C77.8148 304.645 77.1937 304.141 76.3616 304.141C75.4827 304.141 74.9202 304.691 74.932 305.547H73.4788C73.4671 303.941 74.6741 302.898 76.3734 302.898C78.1077 302.898 79.2796 303.93 79.2796 305.359C79.2796 306.32 78.8109 307.094 77.1468 308.664L75.6351 310.164V310.223H79.4085V311.5H73.514ZM83.8298 303.016V311.5H82.2946V304.504H82.2477L80.2673 305.77V304.375L82.3649 303.016H83.8298Z" fill="#3C3C3C"/>
<rect width="46" height="54" transform="translate(102 266)" fill="white"/>
<path d="M138 286.5C138 293.68 132.18 299.5 125 299.5C117.82 299.5 112 293.68 112 286.5C112 279.32 117.82 273.5 125 273.5C132.18 273.5 138 279.32 138 286.5ZM116.651 286.5C116.651 291.111 120.389 294.849 125 294.849C129.611 294.849 133.349 291.111 133.349 286.5C133.349 281.889 129.611 278.151 125 278.151C120.389 278.151 116.651 281.889 116.651 286.5Z" fill="#E2E2E2"/>
<path d="M138 286.5C138 293.68 132.18 299.5 125 299.5C117.82 299.5 112 293.68 112 286.5C112 279.32 117.82 273.5 125 273.5C132.18 273.5 138 279.32 138 286.5ZM116.651 286.5C116.651 291.111 120.389 294.849 125 294.849C129.611 294.849 133.349 291.111 133.349 286.5C133.349 281.889 129.611 278.151 125 278.151C120.389 278.151 116.651 281.889 116.651 286.5Z" fill="#35E3E0"/>
<path d="M118.653 311.5V310.398L121.653 307.504C122.508 306.648 122.953 306.145 122.953 305.43C122.953 304.645 122.332 304.141 121.5 304.141C120.621 304.141 120.059 304.691 120.071 305.547H118.617C118.606 303.941 119.813 302.898 121.512 302.898C123.246 302.898 124.418 303.93 124.418 305.359C124.418 306.32 123.95 307.094 122.285 308.664L120.774 310.164V310.223H124.547V311.5H118.653ZM125.523 311.5V310.398L128.523 307.504C129.379 306.648 129.824 306.145 129.824 305.43C129.824 304.645 129.203 304.141 128.371 304.141C127.492 304.141 126.929 304.691 126.941 305.547H125.488C125.476 303.941 126.683 302.898 128.382 302.898C130.117 302.898 131.289 303.93 131.289 305.359C131.289 306.32 130.82 307.094 129.156 308.664L127.644 310.164V310.223H131.418V311.5H125.523Z" fill="#3C3C3C"/>
<rect width="46" height="54" transform="translate(148 266)" fill="white"/>
<path d="M184 286.5C184 293.68 178.18 299.5 171 299.5C163.82 299.5 158 293.68 158 286.5C158 279.32 163.82 273.5 171 273.5C178.18 273.5 184 279.32 184 286.5ZM162.651 286.5C162.651 291.111 166.389 294.849 171 294.849C175.611 294.849 179.349 291.111 179.349 286.5C179.349 281.889 175.611 278.151 171 278.151C166.389 278.151 162.651 281.889 162.651 286.5Z" fill="#E2E2E2"/>
<path d="M171 273.5C173.052 273.5 175.074 273.986 176.902 274.917C178.73 275.848 180.311 277.199 181.517 278.859C182.723 280.519 183.519 282.44 183.84 284.466C184.161 286.493 183.998 288.566 183.364 290.517L178.94 289.08C179.347 287.827 179.452 286.495 179.246 285.194C179.04 283.893 178.529 282.659 177.754 281.593C176.98 280.527 175.964 279.659 174.79 279.061C173.616 278.463 172.318 278.151 171 278.151L171 273.5Z" fill="#BCFFFE"/>
<path d="M164.477 311.5V310.398L167.477 307.504C168.332 306.648 168.778 306.145 168.778 305.43C168.778 304.645 168.157 304.141 167.325 304.141C166.446 304.141 165.883 304.691 165.895 305.547H164.442C164.43 303.941 165.637 302.898 167.336 302.898C169.071 302.898 170.242 303.93 170.242 305.359C170.242 306.32 169.774 307.094 168.11 308.664L166.598 310.164V310.223H170.371V311.5H164.477ZM174.429 311.617C172.613 311.617 171.324 310.633 171.289 309.203H172.824C172.871 309.883 173.55 310.328 174.429 310.328C175.367 310.328 176.035 309.812 176.035 309.062C176.035 308.301 175.379 307.75 174.277 307.75H173.515V306.578H174.277C175.179 306.578 175.812 306.074 175.8 305.336C175.812 304.621 175.273 304.141 174.441 304.141C173.644 304.141 172.953 304.586 172.929 305.301H171.465C171.5 303.871 172.789 302.898 174.453 302.898C176.175 302.898 177.289 303.953 177.277 305.254C177.289 306.203 176.656 306.895 175.73 307.082V307.152C176.925 307.316 177.605 308.078 177.593 309.145C177.605 310.574 176.269 311.617 174.429 311.617Z" fill="#3C3C3C"/>
<rect width="46" height="54" transform="translate(194 266)" fill="white"/>
<path d="M230 286.5C230 293.68 224.18 299.5 217 299.5C209.82 299.5 204 293.68 204 286.5C204 279.32 209.82 273.5 217 273.5C224.18 273.5 230 279.32 230 286.5ZM208.651 286.5C208.651 291.111 212.389 294.849 217 294.849C221.611 294.849 225.349 291.111 225.349 286.5C225.349 281.889 221.611 278.151 217 278.151C212.389 278.151 208.651 281.889 208.651 286.5Z" fill="#E2E2E2"/>
<path d="M217 273.5C219.052 273.5 221.074 273.986 222.902 274.917C224.73 275.848 226.311 277.199 227.517 278.859C228.723 280.519 229.519 282.44 229.84 284.466C230.161 286.493 229.998 288.566 229.364 290.517L224.94 289.08C225.347 287.827 225.452 286.495 225.246 285.194C225.04 283.893 224.529 282.659 223.754 281.593C222.98 280.527 221.964 279.659 220.79 279.061C219.616 278.463 218.318 278.151 217 278.151L217 273.5Z" fill="#BCFFFE"/>
<path d="M210.489 311.5V310.398L213.489 307.504C214.344 306.648 214.789 306.145 214.789 305.43C214.789 304.645 214.168 304.141 213.336 304.141C212.457 304.141 211.895 304.691 211.907 305.547H210.453C210.442 303.941 211.649 302.898 213.348 302.898C215.082 302.898 216.254 303.93 216.254 305.359C216.254 306.32 215.785 307.094 214.121 308.664L212.61 310.164V310.223H216.383V311.5H210.489ZM217.019 309.918V308.699L220.687 303.016H222.586V308.664H223.699V309.918H222.586V311.5H221.132V309.918H217.019ZM218.578 308.664H221.156V304.75H221.062L218.578 308.605V308.664Z" fill="#3C3C3C"/>
<rect x="240" y="266" width="46" height="54" rx="5" fill="white"/>
<path d="M276 286.5C276 293.68 270.18 299.5 263 299.5C255.82 299.5 250 293.68 250 286.5C250 279.32 255.82 273.5 263 273.5C270.18 273.5 276 279.32 276 286.5ZM254.651 286.5C254.651 291.111 258.389 294.849 263 294.849C267.611 294.849 271.349 291.111 271.349 286.5C271.349 281.889 267.611 278.151 263 278.151C258.389 278.151 254.651 281.889 254.651 286.5Z" fill="#E2E2E2"/>
<path d="M263 273.5C265.052 273.5 267.074 273.986 268.902 274.917C270.73 275.848 272.311 277.199 273.517 278.859C274.723 280.519 275.519 282.44 275.84 284.466C276.161 286.493 275.998 288.566 275.364 290.517C274.73 292.468 273.643 294.242 272.192 295.692C270.742 297.143 268.968 298.23 267.017 298.864C265.066 299.498 262.993 299.661 260.966 299.34C258.94 299.019 257.019 298.223 255.359 297.017L258.093 293.254C259.159 294.029 260.393 294.54 261.694 294.746C262.995 294.952 264.327 294.847 265.58 294.44C266.833 294.033 267.972 293.335 268.904 292.404C269.835 291.472 270.533 290.333 270.94 289.08C271.347 287.827 271.452 286.495 271.246 285.194C271.04 283.893 270.529 282.659 269.754 281.593C268.98 280.527 267.964 279.659 266.79 279.061C265.616 278.463 264.318 278.151 263 278.151L263 273.5Z" fill="#35E3E0"/>
<path d="M256.565 311.5V310.398L259.565 307.504C260.42 306.648 260.866 306.145 260.866 305.43C260.866 304.645 260.244 304.141 259.412 304.141C258.534 304.141 257.971 304.691 257.983 305.547H256.53C256.518 303.941 257.725 302.898 259.424 302.898C261.159 302.898 262.33 303.93 262.33 305.359C262.33 306.32 261.862 307.094 260.198 308.664L258.686 310.164V310.223H262.459V311.5H256.565ZM266.447 311.617C264.748 311.617 263.506 310.609 263.459 309.203H264.947C264.994 309.895 265.638 310.387 266.447 310.387C267.396 310.387 268.076 309.695 268.076 308.758C268.076 307.785 267.373 307.094 266.4 307.094C265.744 307.082 265.263 307.316 264.994 307.82H263.576L264.091 303.016H269.107V304.293H265.345L265.088 306.543H265.17C265.498 306.168 266.119 305.898 266.81 305.898C268.392 305.898 269.552 307.082 269.552 308.711C269.552 310.41 268.275 311.617 266.447 311.617Z" fill="#3C3C3C"/>
<rect width="46" height="54" transform="translate(286 266)" fill="white"/>
<path d="M322 286.5C322 293.68 316.18 299.5 309 299.5C301.82 299.5 296 293.68 296 286.5C296 279.32 301.82 273.5 309 273.5C316.18 273.5 322 279.32 322 286.5ZM300.651 286.5C300.651 291.111 304.389 294.849 309 294.849C313.611 294.849 317.349 291.111 317.349 286.5C317.349 281.889 313.611 278.151 309 278.151C304.389 278.151 300.651 281.889 300.651 286.5Z" fill="white"/>
<path d="M302.471 311.5V310.398L305.471 307.504C306.326 306.648 306.772 306.145 306.772 305.43C306.772 304.645 306.151 304.141 305.319 304.141C304.44 304.141 303.877 304.691 303.889 305.547H302.436C302.424 303.941 303.631 302.898 305.33 302.898C307.065 302.898 308.237 303.93 308.237 305.359C308.237 306.32 307.768 307.094 306.104 308.664L304.592 310.164V310.223H308.366V311.5H302.471ZM312.517 311.617C310.865 311.605 309.201 310.621 309.213 307.492C309.213 304.586 310.537 302.898 312.611 302.898C314.252 302.898 315.377 303.93 315.564 305.301H314.052C313.9 304.656 313.384 304.223 312.611 304.223C311.381 304.223 310.689 305.312 310.689 307.094H310.771C311.205 306.367 312.025 305.934 312.951 305.934C314.474 305.934 315.646 307.082 315.646 308.688C315.646 310.375 314.392 311.629 312.517 311.617ZM312.517 310.387C313.466 310.387 314.17 309.648 314.17 308.723C314.17 307.82 313.478 307.094 312.541 307.094C311.591 307.094 310.865 307.844 310.853 308.734C310.865 309.625 311.556 310.387 312.517 310.387Z" fill="#ABABAB"/>
<rect width="46" height="54" transform="translate(10 320)" fill="white"/>
<path d="M46 340.5C46 347.68 40.1797 353.5 33 353.5C25.8203 353.5 20 347.68 20 340.5C20 333.32 25.8203 327.5 33 327.5C40.1797 327.5 46 333.32 46 340.5ZM24.6511 340.5C24.6511 345.111 28.389 348.849 33 348.849C37.611 348.849 41.3489 345.111 41.3489 340.5C41.3489 335.889 37.611 332.151 33 332.151C28.389 332.151 24.6511 335.889 24.6511 340.5Z" fill="white"/>
<path d="M26.8636 365.5V364.398L29.8636 361.504C30.7191 360.648 31.1644 360.145 31.1644 359.43C31.1644 358.645 30.5433 358.141 29.7112 358.141C28.8323 358.141 28.2698 358.691 28.2816 359.547H26.8284C26.8167 357.941 28.0237 356.898 29.723 356.898C31.4573 356.898 32.6292 357.93 32.6292 359.359C32.6292 360.32 32.1605 361.094 30.4964 362.664L28.9847 364.164V364.223H32.7581V365.5H26.8636ZM34.0505 365.5L37.7302 358.352V358.293H33.4645V357.016H39.3122V358.316L35.6325 365.5H34.0505Z" fill="#ABABAB"/>
<rect width="46" height="54" transform="translate(56 320)" fill="white"/>
<path d="M92 340.5C92 347.68 86.1797 353.5 79 353.5C71.8203 353.5 66 347.68 66 340.5C66 333.32 71.8203 327.5 79 327.5C86.1797 327.5 92 333.32 92 340.5ZM70.6511 340.5C70.6511 345.111 74.389 348.849 79 348.849C83.611 348.849 87.3489 345.111 87.3489 340.5C87.3489 335.889 83.611 332.151 79 332.151C74.389 332.151 70.6511 335.889 70.6511 340.5Z" fill="white"/>
<path d="M72.4827 365.5V364.398L75.4827 361.504C76.3382 360.648 76.7835 360.145 76.7835 359.43C76.7835 358.645 76.1624 358.141 75.3304 358.141C74.4515 358.141 73.889 358.691 73.9007 359.547H72.4476C72.4359 357.941 73.6429 356.898 75.3421 356.898C77.0765 356.898 78.2484 357.93 78.2484 359.359C78.2484 360.32 77.7796 361.094 76.1155 362.664L74.6038 364.164V364.223H78.3773V365.5H72.4827ZM82.4352 365.617C80.5485 365.617 79.2126 364.609 79.2126 363.227C79.2126 362.148 80.0095 361.27 81.029 361.105V361.059C80.1384 360.871 79.529 360.098 79.529 359.172C79.529 357.859 80.7595 356.898 82.4352 356.898C84.0993 356.898 85.3298 357.859 85.3298 359.172C85.3298 360.098 84.7087 360.871 83.8298 361.059V361.105C84.8493 361.27 85.6579 362.148 85.6579 363.227C85.6579 364.609 84.3102 365.617 82.4352 365.617ZM82.4352 364.41C83.4313 364.41 84.0876 363.871 84.0876 363.086C84.0876 362.289 83.3845 361.703 82.4352 361.703C81.4743 361.703 80.7712 362.289 80.7829 363.086C80.7712 363.871 81.4274 364.41 82.4352 364.41ZM82.4352 360.566C83.2555 360.566 83.8415 360.051 83.8415 359.312C83.8415 358.598 83.2673 358.094 82.4352 358.094C81.5915 358.094 81.0173 358.586 81.0173 359.312C81.0173 360.051 81.6032 360.566 82.4352 360.566Z" fill="#ABABAB"/>
<rect width="46" height="54" transform="translate(102 320)" fill="white"/>
<path d="M138 340.5C138 347.68 132.18 353.5 125 353.5C117.82 353.5 112 347.68 112 340.5C112 333.32 117.82 327.5 125 327.5C132.18 327.5 138 333.32 138 340.5ZM116.651 340.5C116.651 345.111 120.389 348.849 125 348.849C129.611 348.849 133.349 345.111 133.349 340.5C133.349 335.889 129.611 332.151 125 332.151C120.389 332.151 116.651 335.889 116.651 340.5Z" fill="white"/>
<path d="M118.471 365.5V364.398L121.471 361.504C122.326 360.648 122.772 360.145 122.772 359.43C122.772 358.645 122.151 358.141 121.319 358.141C120.44 358.141 119.877 358.691 119.889 359.547H118.436C118.424 357.941 119.631 356.898 121.33 356.898C123.065 356.898 124.237 357.93 124.237 359.359C124.237 360.32 123.768 361.094 122.104 362.664L120.592 364.164V364.223H124.366V365.5H118.471ZM128.353 356.898C130.017 356.91 131.658 357.895 131.67 361C131.67 363.93 130.345 365.617 128.259 365.617C126.619 365.617 125.494 364.598 125.306 363.191H126.818C126.97 363.859 127.486 364.293 128.259 364.293C129.49 364.293 130.181 363.203 130.193 361.387H130.099C129.666 362.125 128.857 362.559 127.92 362.559C126.408 362.559 125.236 361.41 125.224 359.805C125.224 358.141 126.466 356.887 128.353 356.898ZM128.365 358.129C127.416 358.129 126.701 358.867 126.713 359.77C126.713 360.684 127.392 361.398 128.341 361.398C129.279 361.398 130.017 360.637 130.006 359.758C130.006 358.891 129.314 358.129 128.365 358.129Z" fill="#ABABAB"/>
<rect width="46" height="54" transform="translate(148 320)" fill="white"/>
<path d="M184 340.5C184 347.68 178.18 353.5 171 353.5C163.82 353.5 158 347.68 158 340.5C158 333.32 163.82 327.5 171 327.5C178.18 327.5 184 333.32 184 340.5ZM162.651 340.5C162.651 345.111 166.389 348.849 171 348.849C175.611 348.849 179.349 345.111 179.349 340.5C179.349 335.889 175.611 332.151 171 332.151C166.389 332.151 162.651 335.889 162.651 340.5Z" fill="white"/>
<path d="M167.342 365.617C165.526 365.617 164.237 364.633 164.201 363.203H165.737C165.784 363.883 166.463 364.328 167.342 364.328C168.28 364.328 168.948 363.812 168.948 363.062C168.948 362.301 168.291 361.75 167.19 361.75H166.428V360.578H167.19C168.092 360.578 168.725 360.074 168.713 359.336C168.725 358.621 168.186 358.141 167.354 358.141C166.557 358.141 165.866 358.586 165.842 359.301H164.377C164.412 357.871 165.701 356.898 167.366 356.898C169.088 356.898 170.201 357.953 170.19 359.254C170.201 360.203 169.569 360.895 168.643 361.082V361.152C169.838 361.316 170.518 362.078 170.506 363.145C170.518 364.574 169.182 365.617 167.342 365.617ZM174.611 365.617C172.572 365.617 171.353 364.035 171.353 361.258C171.353 358.492 172.572 356.898 174.611 356.898C176.638 356.898 177.869 358.492 177.869 361.258C177.869 364.035 176.65 365.617 174.611 365.617ZM174.611 364.34C175.677 364.34 176.334 363.297 176.334 361.258C176.334 359.23 175.666 358.164 174.611 358.164C173.556 358.164 172.888 359.23 172.888 361.258C172.888 363.297 173.545 364.34 174.611 364.34Z" fill="#ABABAB"/>
<rect width="46" height="54" transform="translate(194 320)" fill="white"/>
<path d="M230 340.5C230 347.68 224.18 353.5 217 353.5C209.82 353.5 204 347.68 204 340.5C204 333.32 209.82 327.5 217 327.5C224.18 327.5 230 333.32 230 340.5ZM208.651 340.5C208.651 345.111 212.389 348.849 217 348.849C221.611 348.849 225.349 345.111 225.349 340.5C225.349 335.889 221.611 332.151 217 332.151C212.389 332.151 208.651 335.889 208.651 340.5Z" fill="white"/>
<path d="M214.42 365.617C212.604 365.617 211.315 364.633 211.28 363.203H212.815C212.862 363.883 213.541 364.328 214.42 364.328C215.358 364.328 216.026 363.812 216.026 363.062C216.026 362.301 215.369 361.75 214.268 361.75H213.506V360.578H214.268C215.17 360.578 215.803 360.074 215.791 359.336C215.803 358.621 215.264 358.141 214.432 358.141C213.635 358.141 212.944 358.586 212.92 359.301H211.455C211.491 357.871 212.78 356.898 214.444 356.898C216.166 356.898 217.28 357.953 217.268 359.254C217.28 360.203 216.647 360.895 215.721 361.082V361.152C216.916 361.316 217.596 362.078 217.584 363.145C217.596 364.574 216.26 365.617 214.42 365.617ZM222.006 357.016V365.5H220.47V358.504H220.424L218.443 359.77V358.375L220.541 357.016H222.006Z" fill="#ABABAB"/>
<rect width="46" height="54" transform="translate(240 320)" fill="white"/>
<rect width="46" height="54" transform="translate(286 320)" fill="white"/>
</svg>
