<svg width="123" height="41" viewBox="0 0 123 41" fill="none" xmlns="http://www.w3.org/2000/svg">
<path d="M21.8751 16.168C20.4964 16.5493 18.9271 16.7547 17.1671 16.784C15.4071 16.8133 13.7058 16.828 12.0631 16.828C6.69511 16.828 3.46844 15.6107 2.38311 13.176C2.11911 12.56 1.92844 11.8853 1.81111 11.152C1.69378 10.4187 1.63511 9.67066 1.63511 8.908C1.63511 8.14533 1.69378 7.39733 1.81111 6.664C1.95778 5.93067 2.14844 5.27067 2.38311 4.684C2.91111 3.452 3.87911 2.484 5.28711 1.78C6.69511 1.076 8.58711 0.723998 10.9631 0.723998C12.8991 0.723998 14.6151 0.753332 16.1111 0.812C17.6071 0.870665 19.0298 1.10533 20.3791 1.516C20.0564 1.75067 19.7338 2.088 19.4111 2.528C19.0884 2.93867 18.8391 3.39333 18.6631 3.892C18.6338 3.98 18.6631 4.068 18.7511 4.156C18.8391 4.21466 18.9271 4.25866 19.0151 4.288C19.1324 4.31733 19.2498 4.31733 19.3671 4.288C19.4844 4.25866 19.5724 4.18533 19.6311 4.068C19.9538 3.364 20.3498 2.80666 20.8191 2.396C21.2884 1.956 21.8604 1.61866 22.5351 1.384C23.2098 1.14933 24.0018 0.987999 24.9111 0.899998C25.8204 0.811998 26.8911 0.753331 28.1231 0.723998C30.1471 0.635997 31.8044 0.621331 33.0951 0.679999C34.4151 0.709332 35.4418 0.826665 36.1751 1.032C36.9378 1.208 37.4658 1.50133 37.7591 1.912C38.0818 2.29333 38.2724 2.80667 38.3311 3.452C38.4778 4.684 38.0084 5.49067 36.9231 5.872C35.8378 6.224 33.9604 6.37067 31.2911 6.312C31.5258 6.86933 31.6431 7.39733 31.6431 7.896C31.6724 8.36533 31.6138 8.92267 31.4671 9.568C31.8484 9.42133 32.3471 9.304 32.9631 9.216C33.6084 9.09867 34.2978 9.04 35.0311 9.04C36.3804 9.04 37.4071 9.18667 38.1111 9.48C38.8444 9.77333 39.2404 10.492 39.2991 11.636C39.3578 12.7507 39.1378 13.6307 38.6391 14.276C38.1698 14.9213 37.4658 15.42 36.5271 15.772C35.6178 16.0947 34.5031 16.3147 33.1831 16.432C31.8924 16.52 30.4698 16.564 28.9151 16.564C27.1258 16.564 25.4831 16.3733 23.9871 15.992C22.5204 15.6107 21.2444 14.8333 20.1591 13.66C19.9831 13.4547 19.7924 13.44 19.5871 13.616C19.4111 13.792 19.3964 13.9827 19.5431 14.188C19.7191 14.5107 20.0271 14.848 20.4671 15.2C20.9071 15.552 21.3764 15.8747 21.8751 16.168ZM19.5871 6.312H12.9431C13.5004 7.368 13.5444 8.52666 13.0751 9.788C13.4271 9.67067 13.8818 9.58267 14.4391 9.524C14.9964 9.46533 15.5684 9.42133 16.1551 9.392C16.7711 9.36267 17.3724 9.348 17.9591 9.348C18.5751 9.348 19.1178 9.348 19.5871 9.348V6.312ZM13.2071 25.848C13.1778 25.6427 13.1631 25.4373 13.1631 25.232C13.1631 24.9973 13.1631 24.7627 13.1631 24.528V23.912C10.2298 23.824 7.50178 23.692 4.97911 23.516C3.71778 23.428 2.72044 23.1347 1.98711 22.636C1.28311 22.108 0.931109 21.3307 0.931109 20.304C0.931109 19.4533 1.28311 18.7493 1.98711 18.192C2.72044 17.6053 3.71778 17.3413 4.97911 17.4C7.32578 17.576 9.81911 17.708 12.4591 17.796C15.0991 17.8547 17.7684 17.884 20.4671 17.884C23.1951 17.884 25.8938 17.84 28.5631 17.752C31.2618 17.664 33.8284 17.5467 36.2631 17.4C37.5538 17.3413 38.5511 17.6053 39.2551 18.192C39.9884 18.7493 40.3551 19.4533 40.3551 20.304C40.3551 21.3307 39.9884 22.108 39.2551 22.636C38.5511 23.164 37.5391 23.4573 36.2191 23.516C33.6378 23.692 30.9244 23.824 28.0791 23.912V24.528C28.0791 24.7627 28.0791 24.9827 28.0791 25.188C28.0791 25.3933 28.0644 25.5987 28.0351 25.804C31.4084 26.1853 34.0044 26.948 35.8231 28.092C37.6711 29.2067 38.5951 30.908 38.5951 33.196C38.5951 34.692 38.1844 35.9387 37.3631 36.936C36.5418 37.9333 35.3538 38.7253 33.7991 39.312C32.2738 39.8987 30.3964 40.3093 28.1671 40.544C25.9378 40.808 23.4298 40.94 20.6431 40.94C17.8271 40.94 15.3044 40.808 13.0751 40.544C10.8751 40.28 8.99778 39.84 7.44311 39.224C5.88844 38.6373 4.70044 37.8453 3.87911 36.848C3.05778 35.88 2.64711 34.6627 2.64711 33.196C2.64711 31.0253 3.57111 29.368 5.41911 28.224C7.26711 27.0507 9.86311 26.2587 13.2071 25.848ZM18.6191 35.616C18.5018 35.7333 18.4578 35.8653 18.4871 36.012C18.5164 36.188 18.5751 36.3347 18.6631 36.452C18.7804 36.5693 18.9271 36.6427 19.1031 36.672C19.3084 36.7013 19.4991 36.6427 19.6751 36.496C20.5258 35.8213 21.2151 34.9707 21.7431 33.944C22.2711 32.9173 22.6964 31.876 23.0191 30.82C23.1071 30.5853 23.1071 30.3947 23.0191 30.248C22.9311 30.072 22.7991 29.9693 22.6231 29.94C22.4764 29.8813 22.3151 29.8813 22.1391 29.94C21.9924 29.9693 21.8898 30.072 21.8311 30.248C21.5084 31.2747 21.0978 32.2133 20.5991 33.064C20.1004 33.9147 19.4404 34.7653 18.6191 35.616ZM71.7357 17.576C71.7064 17.84 71.6917 18.104 71.6917 18.368C71.6917 18.6027 71.677 18.852 71.6477 19.116C71.5304 20.876 71.0757 22.1813 70.2837 23.032C69.4917 23.8827 68.465 24.308 67.2037 24.308C65.8544 24.308 64.769 23.8093 63.9477 22.812C63.1557 21.8147 62.8624 20.348 63.0677 18.412C63.1557 17.3267 63.2144 16.3 63.2437 15.332C63.3024 14.3347 63.3317 13.3813 63.3317 12.472C63.3317 11.5333 63.317 10.6093 63.2877 9.7C63.2584 8.76133 63.1997 7.808 63.1117 6.84C62.9357 4.66933 63.229 3.08533 63.9917 2.088C64.7837 1.06133 65.8544 0.547998 67.2037 0.547998C68.465 0.547998 69.4917 0.973332 70.2837 1.824C71.0757 2.67467 71.5304 3.98 71.6477 5.74C71.677 6.092 71.6917 6.444 71.6917 6.796C71.6917 7.11866 71.7064 7.456 71.7357 7.808L73.4517 7.94C73.4224 7.70533 73.4077 7.47067 73.4077 7.236C73.4077 6.972 73.393 6.72267 73.3637 6.488C73.1584 4.31733 73.4517 2.704 74.2437 1.648C75.0357 0.591999 76.121 0.0639987 77.4997 0.0639987C78.7317 0.0639987 79.7437 0.503998 80.5357 1.384C81.357 2.264 81.8264 3.61333 81.9437 5.432C82.061 7.72 82.1197 10.096 82.1197 12.56C82.149 15.024 82.0904 17.4 81.9437 19.688C81.797 21.4773 81.3277 22.812 80.5357 23.692C79.7437 24.572 78.7317 25.012 77.4997 25.012C76.121 25.012 75.0357 24.5133 74.2437 23.516C73.4517 22.5187 73.1437 21.008 73.3197 18.984C73.349 18.72 73.3637 18.4707 73.3637 18.236C73.3637 17.972 73.3784 17.708 73.4077 17.444L71.7357 17.576ZM51.4077 9.568C51.5837 9.97867 51.701 10.536 51.7597 11.24C51.8184 11.944 51.8184 12.4867 51.7597 12.868C51.1437 13.0733 50.601 13.264 50.1317 13.44C49.6917 13.616 49.237 13.8213 48.7677 14.056C48.621 14.1147 48.533 14.2173 48.5037 14.364C48.4744 14.4813 48.4744 14.5987 48.5037 14.716C48.5624 14.8333 48.6504 14.9213 48.7677 14.98C48.885 15.0093 49.0317 14.98 49.2077 14.892C50.1757 14.4227 51.129 14.0413 52.0677 13.748C53.0357 13.4547 54.2824 13.2933 55.8077 13.264C57.685 13.2347 59.181 13.528 60.2957 14.144C61.4397 14.7307 62.085 15.8893 62.2317 17.62C62.3784 19.2627 62.085 20.5093 61.3517 21.36C60.6477 22.1813 59.5917 22.812 58.1837 23.252C56.9517 23.6333 55.5877 23.8533 54.0917 23.912C52.625 23.9413 51.2317 23.956 49.9117 23.956C48.6797 23.956 47.653 23.8387 46.8317 23.604C46.0104 23.3693 45.3357 23.0173 44.8077 22.548C44.2797 22.0787 43.869 21.5213 43.5757 20.876C43.2824 20.2013 43.0624 19.4387 42.9157 18.588C42.5344 16.652 42.329 14.584 42.2997 12.384C42.2704 10.184 42.4757 8.13066 42.9157 6.224C43.2677 4.49333 43.8397 3.188 44.6317 2.308C45.4237 1.428 46.6557 0.914664 48.3277 0.767998C49.149 0.679999 49.9117 0.621332 50.6157 0.591997C51.349 0.533331 52.053 0.503998 52.7277 0.503998C53.4317 0.503998 54.1064 0.518665 54.7517 0.547998C55.4264 0.577331 56.1304 0.621331 56.8637 0.679999C58.5944 0.797332 59.8264 1.22267 60.5597 1.956C61.3224 2.66 61.7037 3.68666 61.7037 5.036C61.7037 6.41467 61.3517 7.51467 60.6477 8.336C59.9437 9.15733 58.6824 9.568 56.8637 9.568H51.4077ZM44.6757 33.284C44.6757 31.9347 45.0424 30.732 45.7757 29.676C46.509 28.62 47.6384 27.74 49.1637 27.036C50.689 26.3027 52.625 25.7453 54.9717 25.364C57.3477 24.9827 60.149 24.792 63.3757 24.792C69.829 24.792 74.537 25.54 77.4997 27.036C80.4917 28.5027 81.9877 30.5853 81.9877 33.284C81.9877 34.6627 81.665 35.8067 81.0197 36.716C80.3744 37.6547 79.3184 38.388 77.8517 38.916C76.385 39.4733 74.4637 39.8693 72.0877 40.104C69.741 40.3387 66.837 40.456 63.3757 40.456C59.9144 40.456 56.9957 40.3387 54.6197 40.104C52.2437 39.8693 50.3077 39.4733 48.8117 38.916C47.345 38.388 46.289 37.6547 45.6437 36.716C44.9984 35.8067 44.6757 34.6627 44.6757 33.284ZM60.1637 33.504C61.1904 34.032 62.2464 34.296 63.3317 34.296C64.4464 34.296 65.517 34.032 66.5437 33.504C66.6904 33.416 66.8077 33.284 66.8957 33.108C67.013 32.9027 67.0277 32.6827 66.9397 32.448C66.881 32.272 66.749 32.1253 66.5437 32.008C66.3677 31.8907 66.1917 31.8907 66.0157 32.008C65.1944 32.448 64.285 32.668 63.2877 32.668C62.2904 32.6387 61.3957 32.404 60.6037 31.964C60.457 31.876 60.281 31.8613 60.0757 31.92C59.8997 31.9787 59.753 32.1253 59.6357 32.36C59.401 32.8 59.577 33.1813 60.1637 33.504ZM116.58 40.5C115.7 40.5 114.894 40.368 114.16 40.104C113.427 39.8693 112.811 39.5027 112.312 39.004C111.814 38.5053 111.447 37.8747 111.212 37.112C110.978 36.3787 110.919 35.5133 111.036 34.516C111.594 29.764 111.872 25.0413 111.872 20.348C111.872 15.6547 111.608 11.0347 111.08 6.488C110.846 4.288 111.256 2.67466 112.312 1.648C113.368 0.591999 114.791 0.0639987 116.58 0.0639987C118.135 0.0639987 119.411 0.503998 120.408 1.384C121.435 2.264 122.036 3.61333 122.212 5.432C122.711 10.2133 122.96 15.1707 122.96 20.304C122.96 25.4373 122.711 30.4093 122.212 35.22C122.036 36.98 121.435 38.3 120.408 39.18C119.411 40.06 118.135 40.5 116.58 40.5ZM97.2203 38.96C95.0203 38.96 93.1576 38.5053 91.6323 37.596C90.107 36.716 88.875 35.4547 87.9363 33.812C87.027 32.1693 86.367 30.1893 85.9563 27.872C85.5456 25.5547 85.3403 22.9733 85.3403 20.128C85.3403 17.2827 85.5163 14.7013 85.8683 12.384C86.2496 10.0373 86.895 8.05733 87.8043 6.444C88.7136 4.80133 89.931 3.54 91.4563 2.66C92.9816 1.75067 94.903 1.296 97.2203 1.296C99.5376 1.296 101.459 1.75067 102.984 2.66C104.51 3.54 105.727 4.80133 106.636 6.444C107.546 8.05733 108.176 10.0373 108.528 12.384C108.91 14.7013 109.1 17.2827 109.1 20.128C109.1 22.9733 108.895 25.5547 108.484 27.872C108.074 30.1893 107.399 32.1693 106.46 33.812C105.551 35.4547 104.334 36.716 102.808 37.596C101.283 38.5053 99.4203 38.96 97.2203 38.96ZM96.5603 22.988C96.5603 23.164 96.6336 23.296 96.7803 23.384C96.927 23.472 97.0736 23.516 97.2203 23.516C97.3963 23.516 97.5576 23.472 97.7043 23.384C97.851 23.296 97.9243 23.164 97.9243 22.988V17.312C97.9243 17.136 97.851 17.004 97.7043 16.916C97.5576 16.7987 97.3963 16.74 97.2203 16.74C97.0736 16.74 96.927 16.7987 96.7803 16.916C96.6336 17.004 96.5603 17.136 96.5603 17.312V22.988Z" fill="#3C3C3C"/>
</svg>
