<svg width="24" height="24" viewBox="0 0 24 24" fill="none" xmlns="http://www.w3.org/2000/svg">
<path fill-rule="evenodd" clip-rule="evenodd" d="M12.1667 8C9.77344 8 7.83334 9.9401 7.83334 12.3333C7.83334 14.7266 9.77344 16.6667 12.1667 16.6667C14.5599 16.6667 16.5 14.7266 16.5 12.3333C16.5 9.9401 14.5599 8 12.1667 8ZM9.83334 12.3333C9.83334 11.0447 10.878 10 12.1667 10C13.4553 10 14.5 11.0447 14.5 12.3333C14.5 13.622 13.4553 14.6667 12.1667 14.6667C10.878 14.6667 9.83334 13.622 9.83334 12.3333Z" fill="#444444"/>
<path fill-rule="evenodd" clip-rule="evenodd" d="M9.66667 3C9.33231 3 9.02008 3.1671 8.83462 3.4453L7.46482 5.5H4.66667C3.95942 5.5 3.28115 5.78095 2.78105 6.28105C2.28095 6.78115 2 7.45942 2 8.16667V17.3333C2 18.0406 2.28095 18.7189 2.78105 19.219C3.28115 19.719 3.95942 20 4.66667 20H19.6667C20.3739 20 21.0522 19.719 21.5523 19.219C22.0524 18.7189 22.3333 18.0406 22.3333 17.3333V8.16667C22.3333 7.45942 22.0524 6.78115 21.5523 6.28105C21.0522 5.78095 20.3739 5.5 19.6667 5.5H16.8685L15.4987 3.4453C15.3133 3.1671 15.001 3 14.6667 3H9.66667ZM8.83205 7.0547L10.2019 5H14.1315L15.5013 7.0547C15.6867 7.3329 15.999 7.5 16.3333 7.5H19.6667C19.8435 7.5 20.013 7.57024 20.1381 7.69526C20.2631 7.82029 20.3333 7.98986 20.3333 8.16667V17.3333C20.3333 17.5101 20.2631 17.6797 20.1381 17.8047C20.013 17.9298 19.8435 18 19.6667 18H4.66667C4.48986 18 4.32029 17.9298 4.19526 17.8047C4.07024 17.6797 4 17.5101 4 17.3333V8.16667C4 7.98986 4.07024 7.82029 4.19526 7.69526C4.32029 7.57024 4.48986 7.5 4.66667 7.5H8C8.33435 7.5 8.64658 7.3329 8.83205 7.0547Z" fill="#444444"/>
</svg>
