<svg width="27" height="23" viewBox="0 0 27 23" fill="none" xmlns="http://www.w3.org/2000/svg">
<path d="M23.2988 3H19.8338L18.1301 0.445C18.0388 0.30819 17.9152 0.196004 17.7702 0.118382C17.6252 0.0407602 17.4633 9.87561e-05 17.2988 0H9.29883C9.13436 9.87561e-05 8.97246 0.0407602 8.82747 0.118382C8.68247 0.196004 8.55886 0.30819 8.46758 0.445L6.76258 3H3.29883C2.50318 3 1.74012 3.31607 1.17751 3.87868C0.614899 4.44129 0.298828 5.20435 0.298828 6V20C0.298828 20.7956 0.614899 21.5587 1.17751 22.1213C1.74012 22.6839 2.50318 23 3.29883 23H23.2988C24.0945 23 24.8575 22.6839 25.4201 22.1213C25.9828 21.5587 26.2988 20.7956 26.2988 20V6C26.2988 5.20435 25.9828 4.44129 25.4201 3.87868C24.8575 3.31607 24.0945 3 23.2988 3ZM24.2988 20C24.2988 20.2652 24.1935 20.5196 24.0059 20.7071C23.8184 20.8946 23.564 21 23.2988 21H3.29883C3.03361 21 2.77926 20.8946 2.59172 20.7071C2.40419 20.5196 2.29883 20.2652 2.29883 20V6C2.29883 5.73478 2.40419 5.48043 2.59172 5.29289C2.77926 5.10536 3.03361 5 3.29883 5H7.29883C7.4635 5.00011 7.62566 4.95954 7.77089 4.88191C7.91612 4.80428 8.03993 4.69199 8.13133 4.555L9.83383 2H16.7626L18.4663 4.555C18.5577 4.69199 18.6815 4.80428 18.8268 4.88191C18.972 4.95954 19.1342 5.00011 19.2988 5H23.2988C23.564 5 23.8184 5.10536 24.0059 5.29289C24.1935 5.48043 24.2988 5.73478 24.2988 6V20ZM13.2988 7C12.211 7 11.1477 7.32257 10.2432 7.92692C9.33872 8.53127 8.63377 9.39025 8.21749 10.3952C7.80121 11.4002 7.69229 12.5061 7.90451 13.573C8.11673 14.6399 8.64055 15.6199 9.40974 16.3891C10.1789 17.1583 11.1589 17.6821 12.2258 17.8943C13.2927 18.1065 14.3986 17.9976 15.4036 17.5813C16.4086 17.1651 17.2676 16.4601 17.8719 15.5556C18.4763 14.6512 18.7988 13.5878 18.7988 12.5C18.7972 11.0418 18.2172 9.64383 17.1861 8.61274C16.155 7.58165 14.757 7.00165 13.2988 7ZM13.2988 16C12.6066 16 11.9299 15.7947 11.3543 15.4101C10.7788 15.0256 10.3302 14.4789 10.0652 13.8394C9.80034 13.1999 9.73103 12.4961 9.86608 11.8172C10.0011 11.1383 10.3345 10.5146 10.824 10.0251C11.3134 9.53564 11.9371 9.2023 12.616 9.06725C13.2949 8.9322 13.9987 9.00151 14.6382 9.26642C15.2778 9.53133 15.8244 9.97993 16.209 10.5555C16.5936 11.1311 16.7988 11.8078 16.7988 12.5C16.7988 13.4283 16.4301 14.3185 15.7737 14.9749C15.1173 15.6313 14.2271 16 13.2988 16Z" fill="#3C3C3C"/>
</svg>
