<svg width="18" height="18" viewBox="0 0 18 18" fill="none" xmlns="http://www.w3.org/2000/svg">
<path d="M17.4941 16.2564C17.5754 16.3377 17.6398 16.4342 17.6838 16.5405C17.7278 16.6467 17.7505 16.7605 17.7505 16.8755C17.7505 16.9905 17.7278 17.1043 17.6838 17.2105C17.6398 17.3167 17.5754 17.4133 17.4941 17.4946C17.4128 17.5758 17.3163 17.6403 17.21 17.6843C17.1038 17.7283 16.99 17.751 16.875 17.751C16.76 17.751 16.6462 17.7283 16.54 17.6843C16.4337 17.6403 16.3372 17.5758 16.2559 17.4946L9 10.2375L1.74406 17.4946C1.57988 17.6587 1.35719 17.751 1.125 17.751C0.892805 17.751 0.670121 17.6587 0.505936 17.4946C0.34175 17.3304 0.249512 17.1077 0.249512 16.8755C0.249512 16.6433 0.34175 16.4206 0.505936 16.2564L7.76297 9.00049L0.505936 1.74455C0.34175 1.58036 0.249512 1.35768 0.249512 1.12549C0.249512 0.893293 0.34175 0.67061 0.505936 0.506424C0.670121 0.342238 0.892805 0.25 1.125 0.25C1.35719 0.25 1.57988 0.342238 1.74406 0.506424L9 7.76346L16.2559 0.506424C16.4201 0.342238 16.6428 0.25 16.875 0.25C17.1072 0.25 17.3299 0.342238 17.4941 0.506424C17.6582 0.67061 17.7505 0.893293 17.7505 1.12549C17.7505 1.35768 17.6582 1.58036 17.4941 1.74455L10.237 9.00049L17.4941 16.2564Z" fill="white"/>
</svg>
