<svg width="25" height="24" viewBox="0 0 25 24" fill="none" xmlns="http://www.w3.org/2000/svg">
<g clip-path="url(#clip0_2021_16820)">
<path fill-rule="evenodd" clip-rule="evenodd" d="M17 8C16.266 8 15.562 8.2916 15.0429 8.81066L4.62625 19.2273C4.49809 19.3555 4.40717 19.5161 4.36321 19.6919L3.52988 23.0252C3.44468 23.366 3.54453 23.7265 3.79291 23.9749C4.04129 24.2233 4.40178 24.3231 4.74256 24.2379L8.07589 23.4046C8.25172 23.3606 8.4123 23.2697 8.54046 23.1415L18.9571 12.7249C19.2141 12.4679 19.418 12.1627 19.5571 11.8269C19.6962 11.4911 19.7678 11.1312 19.7678 10.7678C19.7678 10.4043 19.6962 10.0444 19.5571 9.70859C19.418 9.37279 19.2141 9.06767 18.9571 8.81066C18.7001 8.55365 18.395 8.34978 18.0592 8.21068C17.7234 8.07159 17.3635 8 17 8ZM16.4571 10.2249C16.6011 10.0809 16.7964 10 17 10C17.1008 10 17.2007 10.0199 17.2938 10.0584C17.387 10.097 17.4716 10.1536 17.5429 10.2249C17.6142 10.2962 17.6708 10.3808 17.7093 10.474C17.7479 10.5671 17.7678 10.6669 17.7678 10.7678C17.7678 10.8686 17.7479 10.9684 17.7093 11.0616C17.6708 11.1547 17.6142 11.2394 17.5429 11.3107L7.3221 21.5315L5.87439 21.8934L6.23632 20.4457L16.4571 10.2249Z" fill="#444444"/>
<path d="M12 22.2678C11.4477 22.2678 11 22.7155 11 23.2678C11 23.8201 11.4477 24.2678 12 24.2678H19.5C20.0523 24.2678 20.5 23.8201 20.5 23.2678C20.5 22.7155 20.0523 22.2678 19.5 22.2678H12Z" fill="#444444"/>
</g>
<defs>
<clipPath id="clip0_2021_16820">
<rect width="24" height="24" fill="white" transform="translate(0.5)"/>
</clipPath>
</defs>
</svg>
