<svg width="16" height="16" viewBox="0 0 16 16" fill="none" xmlns="http://www.w3.org/2000/svg">
<path d="M16 7.38488V14.7693C16 15.0957 15.8468 15.4087 15.574 15.6395C15.3012 15.8703 14.9312 16 14.5455 16H1.45455C1.06878 16 0.698807 15.8703 0.426026 15.6395C0.153246 15.4087 0 15.0957 0 14.7693V7.38488C0 7.05847 0.153246 6.74542 0.426026 6.51462C0.698807 6.28381 1.06878 6.15414 1.45455 6.15414H3.63636C3.82925 6.15414 4.01423 6.21898 4.15062 6.33438C4.28701 6.44978 4.36364 6.60631 4.36364 6.76951C4.36364 6.93272 4.28701 7.08924 4.15062 7.20464C4.01423 7.32004 3.82925 7.38488 3.63636 7.38488H1.45455V14.7693H14.5455V7.38488H12.3636C12.1708 7.38488 11.9858 7.32004 11.8494 7.20464C11.713 7.08924 11.6364 6.93272 11.6364 6.76951C11.6364 6.60631 11.713 6.44978 11.8494 6.33438C11.9858 6.21898 12.1708 6.15414 12.3636 6.15414H14.5455C14.9312 6.15414 15.3012 6.28381 15.574 6.51462C15.8468 6.74542 16 7.05847 16 7.38488ZM4.87818 4.12805L7.27273 2.10119V9.23098C7.27273 9.39418 7.34935 9.5507 7.48574 9.6661C7.62213 9.78151 7.80712 9.84634 8 9.84634C8.19288 9.84634 8.37787 9.78151 8.51426 9.6661C8.65065 9.5507 8.72727 9.39418 8.72727 9.23098V2.10119L11.1218 4.12805C11.2583 4.24352 11.4434 4.30839 11.6364 4.30839C11.8294 4.30839 12.0144 4.24352 12.1509 4.12805C12.2874 4.01258 12.364 3.85598 12.364 3.69268C12.364 3.52938 12.2874 3.37278 12.1509 3.25731L8.51455 0.180479C8.447 0.123264 8.36679 0.0778753 8.2785 0.0469074C8.19021 0.0159395 8.09558 0 8 0C7.90443 0 7.80979 0.0159395 7.7215 0.0469074C7.63321 0.0778753 7.553 0.123264 7.48545 0.180479L3.84909 3.25731C3.71262 3.37278 3.63596 3.52938 3.63596 3.69268C3.63596 3.85598 3.71263 4.01258 3.84909 4.12805C3.98556 4.24352 4.17064 4.30839 4.36364 4.30839C4.55663 4.30839 4.74172 4.24352 4.87818 4.12805Z" fill="#3C3C3C"/>
</svg>
