<svg width="24" height="24" viewBox="0 0 24 24" fill="none" xmlns="http://www.w3.org/2000/svg">
<path d="M23.4375 5.92508L18.0758 0.562489C17.8975 0.38416 17.6858 0.2427 17.4529 0.146188C17.2199 0.0496749 16.9702 0 16.718 0C16.4658 0 16.2161 0.0496749 15.9831 0.146188C15.7502 0.2427 15.5385 0.38416 15.3602 0.562489L0.562816 15.3603C0.38375 15.538 0.241781 15.7494 0.145162 15.9824C0.048544 16.2154 -0.000796136 16.4652 9.71405e-06 16.7175V22.0801C9.71405e-06 22.5893 0.202297 23.0776 0.562371 23.4377C0.922445 23.7977 1.41081 24 1.92003 24H7.28289C7.53513 24.0008 7.78501 23.9515 8.018 23.8548C8.251 23.7582 8.46247 23.6163 8.64011 23.4372L23.4375 8.64058C23.6158 8.46229 23.7573 8.25062 23.8538 8.01766C23.9503 7.78469 24 7.535 24 7.28283C24 7.03067 23.9503 6.78097 23.8538 6.54801C23.7573 6.31504 23.6158 6.10337 23.4375 5.92508ZM7.28289 22.0801H1.92003V16.7175L12.4802 6.15787L17.843 11.5205L7.28289 22.0801ZM19.2002 10.1621L13.8374 4.80073L16.7174 1.92084L22.0803 7.28223L19.2002 10.1621Z" fill="white"/>
</svg>
